<?xml version="1.0" standalone="no"?>
<!DOCTYPE svg PUBLIC "-//W3C//DTD SVG 20010904//EN"
 "http://www.w3.org/TR/2001/REC-SVG-20010904/DTD/svg10.dtd">
<svg version="1.0" xmlns="http://www.w3.org/2000/svg"
 width="512.000000pt" height="512.000000pt" viewBox="0 0 512.000000 512.000000"
 preserveAspectRatio="xMidYMid meet">
<metadata>
Created by potrace 1.16, written by Peter Selinger 2001-2019
</metadata>
<g transform="translate(0.000000,512.000000) scale(0.100000,-0.100000)"
fill="#000000" stroke="none">
<path d="M50 4450 c0 -6 75 -9 208 -9 141 1 190 4 152 9 -84 12 -360 12 -360
0z"/>
<path d="M4323 4424 c-18 -9 -38 -29 -45 -46 -10 -22 -17 -27 -33 -22 -11 3
-36 8 -56 11 -32 4 -39 1 -67 -35 -38 -48 -57 -52 -272 -61 -108 -5 -4 -8 339
-9 l494 -2 -34 25 c-19 13 -45 30 -59 37 -14 7 -33 21 -43 31 -13 13 -26 17
-44 12 -20 -5 -31 1 -57 30 -37 42 -78 52 -123 29z"/>
<path d="M4730 4325 c-11 -13 -4 -15 56 -15 63 1 67 2 50 15 -26 19 -90 19
-106 0z"/>
<path d="M563 4307 c-10 -12 -25 -21 -33 -20 -26 5 -43 -14 -42 -46 0 -17 -4
-31 -9 -31 -5 0 -9 -7 -9 -15 0 -10 -10 -15 -26 -15 -25 0 -26 -2 -21 -39 l5
-39 -37 5 c-20 3 -41 10 -48 15 -16 13 -50 1 -90 -31 -36 -29 -40 -42 -18 -61
8 -7 15 -19 15 -27 0 -11 -7 -13 -31 -8 -25 6 -31 4 -36 -14 -3 -13 -13 -21
-27 -21 -26 0 -46 -18 -46 -41 0 -28 40 -49 92 -49 26 0 50 -4 53 -10 9 -15
36 -12 56 6 13 12 22 13 38 5 11 -6 42 -11 70 -11 48 0 52 -2 76 -39 19 -28
27 -57 32 -109 7 -80 1 -104 -22 -96 -12 5 -13 9 -4 21 10 11 9 18 -4 31 -14
13 -22 14 -46 6 -17 -7 -35 -8 -45 -2 -9 5 -31 5 -53 -1 -21 -6 -50 -13 -65
-16 -19 -3 -30 -13 -34 -30 -5 -20 -10 -24 -30 -19 -26 7 -64 -18 -64 -42 0
-7 -6 -14 -12 -17 -10 -3 -10 -9 -2 -23 9 -14 21 -18 45 -16 56 6 17 -25 -49
-39 -75 -16 -90 -14 -118 12 l-24 22 0 -48 0 -48 43 7 c23 3 52 8 63 12 17 4
26 -2 42 -28 12 -19 64 -75 115 -125 l93 -90 -22 -20 c-17 -15 -35 -20 -75
-18 -49 2 -55 4 -71 34 -10 18 -16 37 -12 42 3 6 -1 24 -9 42 -8 18 -17 39
-19 47 -3 8 -9 -15 -13 -51 -6 -61 -9 -66 -38 -79 l-32 -13 34 -6 33 -6 -21
-19 c-12 -11 -20 -25 -17 -32 2 -6 -2 -21 -10 -33 -19 -27 -7 -27 22 0 l21 20
-4 -25 c-9 -43 -29 -53 -69 -31 -40 21 -55 14 -30 -14 10 -11 15 -24 12 -29
-3 -5 1 -15 9 -22 8 -7 15 -9 15 -6 0 4 7 0 16 -9 13 -12 14 -19 5 -28 -8 -8
-18 -5 -41 11 -16 12 -32 22 -35 22 -3 0 -5 -133 -5 -296 0 -262 2 -295 15
-284 8 7 15 8 15 2 0 -5 -7 -15 -15 -22 -8 -7 -15 -27 -15 -44 1 -30 1 -30 17
-11 l16 20 -8 -20 c-4 -11 -12 -32 -18 -47 -13 -32 -1 -50 17 -26 12 16 14 15
35 -5 l23 -22 -22 42 c-30 58 -22 67 22 30 35 -30 38 -37 44 -104 8 -86 2 -90
-62 -38 -53 44 -66 44 -62 3 3 -30 8 -34 92 -69 48 -20 83 -40 77 -43 -6 -4
-11 -17 -11 -30 0 -13 -8 -38 -17 -57 -10 -19 -16 -42 -15 -51 4 -25 -7 -23
-65 17 -29 19 -56 35 -60 35 -4 0 19 -27 52 -60 l59 -60 -29 0 -30 -1 25 -14
c23 -13 24 -14 6 -21 -17 -7 -17 -8 -2 -19 13 -10 8 -12 -34 -10 -45 2 -48 1
-39 -16 5 -10 21 -22 34 -25 14 -3 22 -10 19 -15 -3 -6 -15 -7 -27 -3 -19 6
-20 5 -8 -10 12 -14 11 -16 -8 -16 -20 0 -21 -5 -21 -99 l0 -98 85 -23 c46
-12 83 -25 82 -29 -2 -3 -9 -19 -17 -34 -12 -25 -12 -30 8 -49 18 -18 23 -19
37 -8 15 13 15 32 -1 73 -4 12 15 10 103 -13 141 -36 323 -89 346 -102 10 -5
23 -8 30 -5 17 5 -34 36 -106 64 l-62 24 71 -6 c38 -2 90 -11 115 -18 30 -9
55 -11 79 -4 43 11 106 5 230 -22 114 -25 192 -26 251 -5 24 9 79 20 122 24
123 14 186 30 215 56 22 19 24 25 13 33 -18 12 -6 15 129 32 52 6 106 15 120
20 23 8 23 8 7 -5 -9 -7 -57 -22 -105 -31 -87 -18 -128 -35 -82 -35 64 1 229
54 245 79 3 6 -18 26 -47 45 -33 23 -47 37 -37 40 25 8 180 25 334 36 281 20
604 60 655 81 24 10 24 11 6 25 -10 7 -53 28 -95 46 -67 28 -91 33 -201 39
-126 7 -266 31 -284 49 -7 7 96 10 297 10 175 0 315 4 325 9 9 6 38 13 64 16
30 4 53 13 61 25 9 12 28 20 57 22 25 2 -24 9 -110 16 -85 8 -164 17 -175 22
-65 26 -154 40 -277 44 -76 3 -143 8 -149 12 -7 4 -51 7 -98 8 -83 1 -86 2
-89 25 l-4 24 318 -6 c174 -4 405 -7 513 -7 175 -1 194 -2 177 -15 -16 -12
-59 -15 -215 -15 -107 0 -191 -3 -188 -7 10 -10 409 -17 915 -15 254 0 462 -1
462 -4 0 -3 -16 -12 -35 -20 -28 -11 -128 -14 -567 -16 -521 -3 -525 -3 -183
-8 378 -5 358 -2 340 -57 -5 -16 -16 -23 -34 -24 -23 -2 -24 -2 -3 -6 24 -5
29 -22 10 -41 -9 -9 -8 -12 8 -12 15 -1 11 -8 -21 -37 -39 -34 -39 -35 -12
-31 29 6 38 -9 11 -19 -13 -5 -13 -7 -2 -14 9 -6 7 -9 -9 -9 -29 0 -30 -24 -1
-37 l22 -10 -28 -18 c-21 -14 -34 -16 -53 -9 -30 10 -43 34 -19 34 25 0 19 15
-11 30 l-28 12 24 10 25 9 -35 21 c-19 12 -29 23 -21 25 17 7 15 33 -4 33 -8
0 -12 5 -8 11 3 6 2 21 -4 32 -6 12 -13 39 -17 60 -8 52 -22 46 -30 -13 -4
-27 -11 -53 -16 -56 -6 -3 -7 -15 -3 -26 5 -17 3 -20 -11 -14 -14 5 -16 2 -12
-15 4 -15 0 -23 -14 -26 -24 -7 -24 -20 1 -35 24 -16 26 -28 3 -28 -15 0 -14
-2 3 -16 18 -15 18 -15 -11 -10 -16 2 -39 8 -50 11 -15 5 -13 1 8 -17 l28 -25
-23 -10 c-23 -10 -23 -10 12 -32 l35 -21 -48 0 c-58 0 -55 -13 9 -42 24 -10
44 -21 44 -24 0 -3 -20 -2 -45 2 -51 7 -60 -6 -20 -32 29 -19 24 -34 -10 -34
-28 0 -61 38 -70 81 -8 37 -21 30 -30 -18 -4 -21 -12 -41 -18 -45 -9 -6 -9
-12 1 -28 11 -18 10 -20 -8 -20 -27 0 -26 -17 2 -26 19 -6 20 -7 4 -16 -10 -6
-24 -11 -32 -12 -8 -1 -20 -11 -28 -21 -8 -11 -38 -25 -67 -31 -48 -11 -56
-11 -66 3 -20 26 -16 51 18 109 20 36 37 54 50 54 22 0 24 18 6 53 -10 18 -17
23 -24 16 -8 -8 -13 -7 -17 0 -12 19 -23 12 -23 -15 0 -46 -19 -53 -103 -41
-87 12 -121 13 -172 2 -32 -6 -38 -5 -38 9 0 9 -3 16 -7 16 -9 0 -63 -74 -63
-85 0 -4 17 -5 37 -3 33 2 40 -1 60 -31 14 -21 23 -50 24 -75 0 -43 17 -99 18
-63 1 22 9 22 34 -1 20 -17 20 -17 2 14 -16 28 -16 34 -3 59 l15 28 17 -53 c9
-29 16 -53 14 -55 -2 -1 -25 -10 -52 -19 -42 -14 -106 -16 -430 -17 -254 -1
-361 -4 -321 -10 33 -5 200 -6 370 -3 l310 5 -50 -28 c-27 -16 -74 -46 -104
-66 -60 -42 -88 -49 -72 -18 10 17 8 18 -23 11 -68 -15 -78 -45 -18 -56 20 -4
54 -16 76 -27 35 -19 37 -21 21 -33 -17 -12 -16 -14 11 -24 16 -6 39 -22 51
-35 17 -17 38 -25 80 -30 32 -3 72 -12 88 -20 17 -8 48 -19 70 -24 22 -6 58
-15 80 -20 22 -6 128 -16 235 -21 107 -6 220 -17 250 -25 30 -8 42 -12 25 -10
-16 3 -97 10 -180 15 -82 6 -197 15 -255 20 -98 8 -121 7 -108 -5 14 -15 165
-48 274 -60 219 -26 405 -74 450 -116 49 -46 36 -62 -105 -134 -138 -70 -241
-149 -221 -169 6 -6 91 -16 203 -22 l192 -11 -130 -2 c-83 -2 -123 -5 -110
-11 11 -5 43 -9 70 -9 28 -1 67 -4 87 -7 l38 -7 -26 -30 c-42 -50 -21 -57 183
-57 168 0 173 -1 173 -20 0 -18 -4 -20 -37 -15 -51 8 -27 -7 57 -36 54 -18 95
-23 240 -28 171 -6 172 -6 70 -11 -98 -5 -105 -6 -108 -27 -3 -20 2 -22 98
-28 55 -4 103 -12 106 -16 3 -5 162 -9 355 -9 l349 0 0 240 c0 132 -3 240 -6
240 -3 0 -15 -5 -27 -11 -18 -8 -17 -5 6 15 18 17 27 35 27 56 0 30 0 30 -27
16 -16 -8 -43 -28 -61 -45 -54 -51 -36 -16 28 51 54 57 82 99 45 68 -8 -7 -15
-8 -15 -2 0 5 7 15 15 22 8 7 15 20 15 28 0 10 -23 -7 -61 -43 -53 -53 -59
-56 -49 -30 6 17 25 48 41 70 29 38 28 38 -13 -7 -25 -25 -61 -78 -82 -117
-20 -39 -39 -71 -41 -71 -3 0 4 21 14 47 10 27 28 79 41 117 16 48 36 84 64
114 30 33 35 42 17 32 -22 -11 -23 -11 -17 11 3 13 8 35 12 49 3 14 -26 -33
-65 -105 l-71 -130 -1 45 -1 45 -17 -55 -17 -55 -7 79 c-4 43 -8 97 -8 120 -1
25 -8 -4 -19 -74 l-16 -115 -14 59 c-21 88 -24 51 -6 -62 9 -55 16 -103 15
-108 0 -5 -17 50 -37 123 -37 129 -58 180 -47 112 6 -33 5 -32 -20 14 -35 66
-41 54 -10 -21 26 -65 75 -226 74 -246 0 -6 -10 17 -23 50 -29 80 -66 142
-106 179 l-33 30 37 -51 c31 -44 66 -112 66 -129 0 -3 -20 11 -45 29 -47 37
-82 52 -93 41 -3 -3 8 -17 26 -31 33 -26 102 -110 102 -125 0 -4 -33 17 -72
46 -70 53 -97 67 -82 44 5 -8 1 -8 -14 0 -39 21 -43 11 -10 -24 18 -19 42 -44
53 -55 11 -12 34 -32 50 -46 l30 -25 -30 19 c-16 10 -48 31 -70 45 -41 27 -90
49 -135 62 -14 3 -2 -7 27 -24 68 -40 73 -50 21 -44 -29 4 -39 3 -34 -5 4 -7
15 -12 24 -12 9 -1 28 -7 42 -15 l25 -13 -25 -6 c-14 -2 -55 -7 -92 -11 -74
-6 -87 4 -40 30 21 13 23 15 6 12 -20 -4 -21 -2 -12 32 25 97 65 134 144 134
24 0 44 4 44 8 0 4 -27 27 -60 51 -33 23 -60 48 -60 55 -1 43 325 178 588 243
l92 23 0 136 -1 136 -19 -24 -20 -23 0 40 c0 42 13 62 26 41 5 -8 3 -9 -6 -4
-9 5 -11 4 -6 -3 21 -35 27 -1 26 153 -1 91 -5 165 -10 165 -16 0 -184 -51
-395 -120 -355 -117 -491 -181 -604 -286 -53 -49 -123 -85 -138 -71 -9 10 27
64 59 89 18 14 71 45 118 70 287 152 349 182 452 222 108 42 416 138 486 152
l32 6 0 380 c0 258 -3 377 -10 373 -15 -9 -100 43 -100 60 0 18 14 19 42 4 11
-6 31 -8 44 -5 21 6 24 12 24 50 0 43 0 43 -41 49 -35 5 -86 34 -76 43 2 2 20
-1 40 -7 58 -16 77 -5 77 42 0 36 -2 40 -20 34 -27 -8 -87 12 -94 32 -5 13 0
14 28 9 19 -4 46 -4 60 0 22 5 26 12 26 40 0 32 -1 33 -32 27 -22 -4 -29 -3
-24 5 5 8 -1 12 -16 12 -14 0 -33 7 -44 16 -15 12 -16 15 -2 10 49 -15 84 -16
101 -3 17 12 13 15 -42 30 -34 9 -61 22 -61 28 0 7 8 9 23 4 47 -15 77 -17 77
-6 0 6 -10 11 -21 11 -18 0 -19 2 -9 15 7 8 21 15 31 15 12 0 19 7 19 20 0 21
-14 25 -81 21 -20 -2 -40 3 -44 9 -5 9 1 10 22 6 20 -5 43 -1 67 10 44 21 46
34 7 34 -17 0 -33 5 -36 10 -3 6 -1 10 4 10 6 0 11 5 11 10 0 6 -12 10 -26 10
-28 0 -64 16 -64 29 0 5 11 6 25 3 35 -6 73 5 84 26 9 17 5 18 -39 18 -27 -1
-54 4 -59 9 -8 8 0 11 24 11 19 0 40 5 47 12 9 9 7 12 -12 12 -14 0 -36 10
-50 21 l-25 20 39 -16 c75 -29 106 -8 36 26 -20 10 -29 19 -22 23 23 14 13 36
-15 36 l-28 1 28 20 c34 26 35 41 2 33 -30 -7 -34 12 -5 21 30 10 25 33 -6 27
-22 -4 -25 -2 -22 19 2 19 10 25 38 28 l35 5 -40 5 c-31 5 -41 11 -46 31 l-7
25 -1 -27 -1 -28 -125 0 c-73 0 -125 4 -125 10 0 5 -16 12 -35 16 -29 5 -33 9
-24 20 8 10 50 14 163 16 149 3 150 3 91 16 -186 39 -187 37 23 40 116 1 192
6 192 12 0 11 -15 11 -275 10 -94 0 -174 2 -178 6 -4 4 -2 13 5 21 16 20 6 24
-28 11 -24 -9 -36 -8 -59 5 l-30 16 36 -1 c36 -1 99 33 99 53 0 12 -15 11 -61
-2 -20 -7 -46 -8 -56 -4 -15 6 -12 9 19 22 44 18 62 48 24 41 -39 -8 -51 7
-22 26 32 20 33 36 4 36 -19 0 -20 2 -8 10 8 5 72 10 143 10 l128 0 -17 31
c-50 98 -127 105 -208 20 -20 -20 -39 -31 -58 -31 -30 0 -38 17 -13 26 21 8
19 21 -4 29 -11 3 -22 21 -28 48 l-9 42 -10 -45 c-8 -34 -14 -44 -27 -42 -20
3 -22 -14 -3 -49 12 -24 12 -25 -10 -21 -26 5 -31 -7 -11 -27 10 -11 6 -12
-20 -6 -42 9 -44 -11 -5 -56 21 -25 23 -31 9 -26 -11 4 -30 10 -44 14 -28 6
-26 -3 5 -39 13 -16 13 -18 -1 -24 -8 -3 -26 0 -38 7 -23 12 -23 12 -8 -12 11
-16 31 -27 63 -33 26 -5 45 -14 43 -20 -4 -13 -67 -26 -119 -26 -41 0 -49 -13
-20 -29 14 -9 13 -10 -10 -11 -16 0 -28 -5 -28 -12 0 -6 -13 0 -28 15 -37 35
-85 36 -115 3 -20 -23 -23 -23 -53 -9 -40 20 -68 13 -123 -32 l-44 -35 202 0
c110 0 201 2 201 5 0 3 -10 10 -22 15 -17 6 -2 9 52 8 61 0 69 -1 44 -9 -42
-12 -63 -37 -43 -50 9 -6 -115 -7 -332 -3 -248 5 -351 4 -365 -4 -14 -9 69
-11 337 -12 300 0 363 3 402 16 26 9 47 20 47 25 0 5 5 9 10 9 14 0 13 -33 -1
-47 -7 -7 -54 -22 -105 -34 -52 -13 -94 -25 -94 -28 0 -4 19 -14 43 -23 32
-13 55 -15 97 -8 30 4 56 6 58 5 6 -5 -127 -45 -151 -45 -32 0 -34 -10 -6 -36
27 -24 115 -25 152 -1 34 22 47 22 47 -2 0 -25 -41 -51 -82 -51 -18 0 -44 -9
-58 -20 -14 -11 -35 -20 -48 -20 -31 0 -84 -23 -101 -44 -13 -16 -16 -15 -45
12 -23 21 -68 40 -164 71 -74 22 -138 41 -144 41 -23 0 -139 94 -248 200
l-114 112 -66 -6 c-64 -7 -66 -7 -125 -70 -33 -35 -79 -74 -103 -85 -26 -13
-61 -45 -89 -81 -50 -64 -81 -78 -147 -66 -36 7 -25 17 -241 -211 -64 -68 -71
-73 -111 -73 -23 0 -53 -4 -66 -9 -13 -5 -80 -57 -150 -115 l-128 -106 -47 5
c-41 4 -43 3 -15 -4 18 -5 35 -11 38 -14 3 -3 -18 -23 -48 -45 -42 -31 -67
-41 -123 -50 -83 -13 -133 -38 -262 -130 -54 -38 -113 -77 -131 -86 l-34 -17
-91 52 c-124 70 -277 169 -277 179 0 20 43 21 69 2 25 -18 30 -19 62 -5 19 8
53 34 75 59 39 42 44 44 81 38 37 -6 46 -1 155 75 73 51 129 83 150 86 18 2
47 7 63 10 26 5 41 -4 115 -64 46 -39 87 -68 90 -65 5 6 -27 35 -123 110 -48
38 -63 45 -85 40 -15 -4 -45 -11 -68 -15 -27 -5 -80 -35 -153 -85 -100 -69
-117 -77 -145 -72 -27 5 -41 0 -80 -30 -38 -29 -54 -35 -82 -32 -19 2 -34 0
-34 -4 0 -4 16 -8 36 -8 30 0 34 -2 25 -14 -20 -24 -59 -28 -87 -9 -24 15 -25
17 -8 24 18 7 18 8 1 8 -11 1 -32 -7 -47 -16 -26 -15 -30 -15 -52 -1 -58 39
-222 185 -270 239 -34 39 -73 71 -108 89 -30 15 -75 46 -100 67 -75 66 -130
102 -166 109 -29 5 -34 10 -34 35 0 16 5 29 11 29 6 0 40 23 76 51 48 37 71
49 86 45 12 -3 46 2 74 11 57 18 85 11 126 -29 22 -22 80 -24 97 -3 7 8 23 15
37 15 37 0 26 34 -12 38 -17 2 -34 8 -39 13 -6 5 -20 9 -32 9 -13 0 -26 5 -30
11 -5 8 3 10 27 5 61 -13 129 -18 147 -11 14 5 12 11 -18 35 l-35 29 310 2
c171 1 297 5 280 9 -16 4 -165 8 -331 9 l-301 1 -26 30 c-19 20 -37 30 -56 30
-17 0 -33 5 -36 10 -3 6 -15 10 -26 10 -11 0 -23 10 -28 23 -14 37 -47 60 -75
53 -14 -3 -28 -1 -32 5 -4 6 -20 8 -39 5 -27 -5 -33 -3 -38 14 -10 38 -87 18
-87 -23 0 -13 5 -28 12 -35 9 -9 7 -12 -10 -12 -19 0 -22 5 -22 44 0 59 7 74
42 92 26 13 40 14 101 3 74 -12 119 -28 85 -29 -10 0 -18 -5 -18 -11 0 -7 9
-9 22 -6 13 4 29 0 39 -9 21 -19 91 -10 83 11 -4 10 5 11 38 8 56 -6 76 12 51
46 -12 17 -22 22 -42 18 -15 -3 -35 1 -46 9 -23 17 -90 10 -115 -12 -12 -10
-25 -11 -55 -4 -22 5 -56 10 -75 10 -33 1 -34 1 -16 15 11 8 28 15 37 15 27 0
34 21 10 27 -12 3 -21 11 -21 18 0 16 265 24 795 25 219 1 401 3 404 5 2 3
-258 5 -579 5 -517 0 -581 2 -570 15 8 10 31 15 66 15 29 0 55 4 58 9 3 5 15
7 25 4 11 -3 35 2 53 11 l33 16 -24 -20 -24 -20 442 0 c280 1 440 4 436 10 -4
6 -19 10 -34 10 -16 0 -37 10 -51 25 -27 29 -79 41 -108 26 -15 -8 -23 -7 -33
5 -10 12 -25 15 -61 11 -46 -6 -47 -6 -58 29 -14 43 -61 74 -110 74 -43 0
-107 -41 -116 -75 -5 -20 -10 -23 -40 -18 -24 4 -40 1 -52 -10 -15 -13 -20
-14 -36 -1 -11 8 -33 14 -48 14 -33 0 -88 -25 -88 -41 0 -5 -14 1 -31 13 -21
16 -46 23 -82 24 -29 1 -59 5 -68 9 -10 3 -20 2 -23 -4 -5 -7 -15 -7 -31 1
-20 9 -28 8 -43 -5 -20 -18 -52 -23 -52 -8 0 27 131 63 145 40 6 -9 36 -7 102
7 12 2 28 14 34 26 10 18 8 24 -11 40 -12 10 -37 18 -56 18 -19 0 -34 5 -34
10 0 6 5 10 10 10 6 0 10 9 10 20 0 19 7 20 243 21 156 1 228 4 202 10 -22 4
-135 8 -252 8 -130 1 -214 5 -218 11 -3 6 -17 10 -29 10 -15 0 -26 7 -29 20
-3 14 -14 20 -32 20 -14 0 -43 11 -63 25 -46 31 -75 32 -99 2z m7 -193 c0 -8
-5 -12 -10 -9 -6 4 -8 11 -5 16 9 14 15 11 15 -7z m35 6 c15 12 31 -3 21 -19
-9 -15 -46 0 -45 18 0 11 2 12 6 3 4 -9 8 -10 18 -2z m50 -36 c-9 -21 -21 -42
-28 -46 -20 -13 -47 -9 -47 7 0 10 -10 15 -30 15 -31 0 -60 33 -40 45 5 3 10
-1 10 -10 0 -13 6 -16 25 -11 14 4 25 2 25 -3 0 -5 15 -7 33 -5 17 1 35 3 40
3 4 1 7 9 7 19 0 19 10 35 17 28 2 -2 -3 -21 -12 -42z m-145 -135 c0 -5 -9 -9
-20 -9 -22 0 -23 1 -14 24 5 13 9 14 20 5 8 -6 14 -15 14 -20z m40 -25 c0 -13
-4 -24 -9 -24 -5 0 -7 -18 -5 -41 4 -27 2 -39 -5 -34 -6 3 -11 12 -11 18 0 7
-14 21 -31 31 -32 19 -58 61 -44 74 4 4 10 1 12 -5 7 -20 73 -17 73 3 0 8 5
12 10 9 6 -3 10 -17 10 -31z m-126 1 c6 -17 4 -18 -18 -9 -20 8 -21 24 -2 24
8 0 16 -7 20 -15z m176 -6 c0 -7 12 -9 35 -5 28 6 35 4 35 -9 0 -11 -10 -15
-36 -15 -21 0 -33 -4 -29 -10 3 -5 19 -10 36 -10 16 0 29 -5 29 -10 0 -12 -79
-90 -91 -90 -5 0 -9 15 -9 34 0 55 12 126 21 126 5 0 9 -5 9 -11z m274 -210
c-4 -6 -11 -6 -20 2 -21 17 -17 31 6 19 11 -6 18 -15 14 -21z m3631 1 c11 -18
-23 -22 -52 -6 l-28 15 37 1 c20 0 40 -5 43 -10z m-5 -94 c0 -3 -4 -8 -10 -11
-5 -3 -10 -1 -10 4 0 6 5 11 10 11 6 0 10 -2 10 -4z m143 -47 c23 -1 33 -4 22
-6 -11 -3 -23 -9 -26 -14 -7 -11 -71 30 -77 50 -2 7 5 4 17 -8 14 -14 35 -21
64 -22z m-4263 -10 c0 -5 -7 -9 -15 -9 -15 0 -20 12 -9 23 8 8 24 -1 24 -14z
m106 -14 l34 6 0 -52 0 -52 -38 41 c-22 23 -44 42 -49 42 -6 0 -13 7 -17 15
-5 13 -2 14 15 4 12 -6 36 -8 55 -4z m3040 -70 c26 -47 70 -109 96 -138 l49
-52 -22 45 c-12 25 -41 73 -66 108 -24 34 -40 62 -34 62 5 0 42 -36 82 -80 39
-44 100 -98 135 -120 50 -32 74 -57 124 -130 34 -49 76 -101 92 -115 16 -14
47 -47 68 -73 32 -41 124 -114 172 -136 8 -4 9 -8 3 -11 -38 -20 -39 -23 -15
-43 30 -24 19 -42 -26 -42 -45 0 -43 -14 6 -42 22 -13 40 -26 40 -30 0 -4 -19
-8 -42 -10 l-43 -3 30 -18 30 -18 -34 5 c-43 8 -320 147 -390 197 -30 22 -58
39 -63 39 -18 0 -246 155 -289 197 -44 43 -46 46 -41 92 4 50 -10 91 -31 91
-13 0 -117 -113 -117 -127 0 -4 27 19 60 52 49 49 60 56 66 41 10 -25 -12 -90
-43 -126 -14 -17 -60 -54 -101 -82 -41 -28 -92 -66 -113 -85 -25 -23 -46 -33
-61 -31 -19 2 -8 15 70 77 50 40 92 75 92 77 0 11 -68 -33 -138 -90 -42 -34
-117 -83 -166 -109 l-89 -46 49 51 c27 27 90 84 139 126 50 42 117 101 150
132 33 31 75 65 93 76 36 21 95 107 147 215 18 38 35 65 39 62 10 -10 7 -60
-6 -87 -13 -31 0 -86 32 -126 l19 -25 -15 58 c-26 102 -12 97 60 -18 170 -271
191 -295 333 -377 51 -29 69 -45 60 -51 -9 -6 -8 -7 3 -4 8 2 20 -3 26 -11 13
-17 50 -26 58 -14 3 5 0 9 -7 9 -11 0 -80 47 -234 158 -41 30 -73 64 -95 101
-18 30 -70 112 -115 182 -75 117 -83 134 -95 207 l-13 79 -29 -48 c-15 -26
-39 -57 -53 -69 -13 -12 -65 -80 -115 -150 -85 -120 -220 -261 -251 -262 -7
-1 -32 -7 -57 -14 -41 -12 -43 -14 -26 -26 17 -13 15 -17 -29 -69 -26 -30 -93
-97 -149 -148 -100 -92 -105 -95 -237 -148 -131 -51 -244 -108 -235 -117 2 -2
46 14 98 36 52 22 131 53 175 69 95 35 141 64 189 121 20 22 42 41 49 41 7 0
55 20 107 44 51 25 104 47 118 50 14 3 -10 -11 -53 -33 -48 -23 -74 -42 -67
-46 6 -4 46 -6 88 -5 91 2 83 2 150 -1 40 -1 52 -5 48 -15 -11 -28 5 -12 45
47 47 70 176 209 193 209 6 0 55 -26 108 -59 54 -32 111 -64 128 -71 32 -13
40 -30 15 -30 -20 0 -157 70 -215 110 l-45 30 -35 -38 c-19 -22 -56 -66 -82
-100 l-48 -61 43 3 c208 17 267 18 280 8 8 -7 16 -9 19 -6 3 2 8 -2 11 -10 4
-11 -30 -41 -116 -104 -156 -115 -178 -127 -256 -142 -86 -16 -139 -38 -249
-102 l-92 -54 -78 13 c-106 19 -396 -6 -487 -42 -75 -29 -218 -64 -310 -74
-56 -7 -75 -5 -97 7 -32 19 -36 32 -10 32 25 0 113 43 179 88 32 21 115 73
184 114 150 90 427 309 321 254 -17 -9 -74 -50 -127 -91 -54 -42 -132 -98
-174 -124 -42 -27 -129 -83 -194 -124 -65 -42 -143 -85 -174 -97 l-56 -21 -83
48 c-77 44 -99 63 -75 63 5 0 65 37 133 82 139 93 214 127 276 128 37 0 55 9
125 62 45 34 132 103 192 153 61 51 120 97 132 103 12 7 46 12 76 12 60 0 49
-10 239 202 66 73 81 85 102 81 l26 -5 -48 -61 c-93 -119 -250 -247 -332 -270
-19 -5 -59 -26 -90 -46 -80 -54 -91 -58 -40 -14 107 92 113 105 13 30 -48 -36
-113 -107 -97 -107 3 0 41 19 83 42 42 24 104 55 138 69 34 15 75 37 90 48 15
12 47 36 70 54 160 123 273 224 273 244 0 7 9 17 19 23 11 5 40 37 65 69 31
40 57 63 80 71 22 7 57 36 96 80 60 68 72 75 142 79 23 1 32 -9 74 -84z
m-2856 58 c-1 -17 -28 -43 -54 -53 -41 -15 -46 -13 -46 19 0 28 3 30 43 34 23
2 45 4 50 5 4 1 7 -1 7 -5z m-281 -9 c41 -8 40 -24 -1 -24 -45 0 -79 10 -72
21 6 11 29 11 73 3z m459 -3 c1 -1 2 -8 2 -16 0 -10 -11 -15 -32 -16 -18 0
-59 -1 -90 -2 l-57 -2 22 23 c19 20 28 22 87 18 36 -3 66 -5 68 -5z m-473 -36
l80 -3 22 -44 c34 -66 29 -72 -57 -79 l-75 -5 79 -2 79 -2 -7 -37 c-3 -21 -6
-55 -6 -76 0 -35 -2 -37 -25 -31 -17 4 -32 1 -44 -10 -18 -16 -22 -14 -77 32
-64 53 -168 161 -184 192 -8 16 -5 20 24 30 18 6 42 20 52 31 12 14 25 18 39
13 11 -3 56 -8 100 -9z m4398 -23 c167 -3 177 -4 177 -23 0 -10 -7 -19 -15
-19 -12 0 -13 -4 -5 -19 14 -27 13 -30 -10 -24 -25 7 -26 -5 -2 -23 14 -11 14
-15 3 -23 -9 -6 -10 -11 -2 -15 21 -13 11 -28 -14 -22 -28 7 -33 -5 -9 -25 14
-11 13 -14 -8 -26 l-23 -13 22 -6 c44 -12 34 -31 -20 -39 -106 -14 -192 -3
-259 33 -39 21 -48 30 -47 51 1 17 3 20 6 9 5 -19 23 -25 23 -8 0 6 17 2 38
-8 56 -29 128 -37 148 -17 9 9 15 17 13 19 -28 21 -122 66 -140 66 -12 0 -40
12 -61 26 -61 42 -45 62 18 23 28 -17 41 -19 90 -12 58 8 89 33 41 33 -13 0
-51 13 -83 30 -32 16 -67 30 -76 30 -10 0 -18 5 -18 11 0 7 6 8 18 3 9 -5 97
-10 195 -12z m-4030 -9 c7 -6 2 -13 -45 -63 -20 -20 -98 -73 -130 -88 -10 -5
-10 99 0 114 19 31 154 59 175 37z m27 -30 c0 -5 -4 -15 -10 -23 -11 -18 -25
-7 -17 15 6 15 27 21 27 8z m2588 -35 c-69 -112 -95 -147 -111 -158 -22 -13
-24 -17 71 118 42 59 70 87 40 40z m-318 -141 c0 -1 -28 -29 -62 -62 -35 -33
-51 -46 -37 -30 14 17 36 45 48 63 12 17 29 32 37 32 8 0 14 -1 14 -3z m976
-43 c119 -36 119 -36 199 -113 44 -42 80 -79 80 -83 0 -16 -72 -59 -107 -65
-21 -3 -38 -9 -38 -14 0 -12 32 -28 74 -37 26 -5 33 -11 27 -20 -7 -11 -18 -9
-58 12 -65 32 -104 65 -148 126 -20 27 -39 49 -43 47 -4 -1 -9 3 -11 8 -2 6
-16 26 -31 45 -39 51 -84 130 -72 130 5 0 63 -16 128 -36z m464 -34 c-6 -11
-17 -20 -25 -20 -8 0 -15 -7 -15 -15 0 -18 31 -20 48 -3 9 9 12 5 12 -19 0
-37 -5 -39 -106 -48 -61 -6 -77 -4 -110 14 -66 34 -66 35 -32 56 28 16 31 16
25 1 -10 -26 56 -16 133 22 76 37 84 39 70 12z m414 -20 c28 0 13 -24 -22 -35
-18 -5 -32 -15 -32 -22 0 -15 44 -28 67 -19 15 6 15 5 -1 -13 -10 -11 -31 -23
-47 -26 -46 -10 -44 -25 3 -26 l43 0 -42 -21 -42 -21 -75 27 c-43 16 -73 32
-70 38 4 6 -2 7 -16 3 -13 -4 -40 -2 -61 5 -38 13 -39 14 -39 63 l0 50 35 -36
c29 -30 43 -37 73 -37 l37 0 -41 19 c-23 10 -45 24 -49 31 -4 6 8 4 26 -6 46
-24 78 -28 109 -12 14 7 27 15 30 18 3 3 19 10 35 16 17 6 29 16 27 24 -3 11
2 10 16 -3 10 -9 26 -17 36 -17z m-4216 -33 l49 -44 -57 -36 c-59 -38 -79 -44
-109 -28 -15 8 -17 20 -13 68 2 32 9 64 14 71 21 25 66 13 116 -31z m-438 2
c19 -12 38 -27 42 -34 5 -7 34 -16 67 -20 49 -6 64 -12 91 -40 l32 -34 -6 -78
c-4 -43 -14 -118 -21 -168 -8 -49 -17 -112 -20 -139 -8 -56 -23 -51 -29 10 -4
45 -15 112 -23 134 -3 11 -8 9 -18 -10 -7 -14 -11 -29 -8 -34 3 -5 -22 6 -55
24 -67 36 -71 50 -14 50 20 0 44 5 52 10 13 9 13 11 0 20 -8 5 -20 10 -25 10
-6 0 -16 9 -23 20 -9 15 -9 20 0 20 14 0 58 40 58 52 0 5 -16 8 -36 6 -27 -2
-39 2 -48 16 -6 11 -24 31 -40 45 l-28 25 22 8 23 8 -24 26 -24 26 23 -6 c31
-10 29 19 -3 40 -53 35 -21 46 35 13z m3146 -88 c-11 -8 -48 -40 -81 -72 -59
-56 -61 -58 -130 -64 l-70 -6 30 26 c17 15 69 53 118 86 48 33 93 68 99 79 12
19 13 19 34 -8 l22 -27 -22 -14z m-2906 14 c0 -14 -1 -25 -3 -25 -2 0 -14 11
-27 25 l-23 25 26 0 c22 0 27 -5 27 -25z m4531 8 c13 -15 12 -15 -8 -4 -24 12
-29 21 -14 21 5 0 15 -7 22 -17z m-4156 -61 c39 -20 71 -46 90 -73 43 -59 328
-293 448 -367 56 -35 145 -86 197 -114 52 -28 141 -76 198 -107 l104 -56 -7
-60 c-3 -33 -7 -61 -9 -63 -2 -1 -6 16 -10 39 -10 62 -17 66 -38 20 -20 -43
-33 -52 -35 -23 -1 9 -2 34 -4 55 -3 48 -15 56 -24 17 -6 -29 -19 -39 -28 -22
-3 4 -8 29 -11 56 -10 73 -20 85 -37 44 -8 -18 -14 -42 -14 -53 0 -13 -8 -21
-22 -23 -17 -2 -23 -10 -23 -27 0 -13 -3 -31 -6 -40 -6 -14 -8 -13 -21 5 -8
11 -12 23 -9 28 2 4 -2 18 -10 32 l-13 25 -2 -30 c-1 -16 -1 -36 0 -43 1 -8
-3 -20 -10 -28 -10 -12 -14 -12 -20 -2 -5 7 -3 16 4 20 9 5 9 10 -1 20 -6 6
-12 24 -12 39 0 15 -4 30 -9 34 -5 3 -12 19 -16 35 -4 17 -10 28 -15 25 -9 -5
-24 -73 -21 -92 1 -7 -2 -13 -8 -13 -5 0 -7 -9 -4 -20 3 -11 1 -20 -5 -20 -5
0 -18 28 -28 61 l-19 62 -15 -61 -15 -60 -23 18 c-14 12 -18 20 -10 22 8 3 2
12 -15 22 -33 22 -35 36 -5 36 20 0 19 3 -12 29 -31 26 -34 32 -22 50 16 27
15 34 -2 28 -8 -3 -16 -1 -18 5 -3 7 -14 2 -28 -12 -16 -16 -20 -25 -11 -28 9
-3 8 -9 -5 -23 -13 -15 -15 -22 -6 -31 13 -13 -2 -38 -24 -38 -14 0 -37 34
-28 42 2 3 -2 20 -10 39 l-14 34 -7 -26 c-7 -27 -13 -59 -14 -72 -2 -22 -20 8
-26 42 -3 22 -12 47 -19 57 -12 15 -14 13 -19 -22 -19 -124 -32 -128 -46 -16
-11 89 -22 109 -33 62 -9 -36 -15 -66 -17 -88 -2 -19 -29 -26 -46 -12 -11 9
-12 16 -5 25 8 9 8 15 0 20 -5 3 -10 17 -10 31 0 33 -16 30 -29 -6 -9 -28 -12
-29 -35 -18 -15 6 -26 19 -26 30 0 19 25 25 35 8 8 -12 25 -13 25 -1 0 5 -12
12 -27 16 l-28 7 33 14 c41 17 35 32 -10 26 -32 -5 -33 -4 -15 15 17 19 17 21
-5 35 l-23 15 28 0 c16 0 36 7 44 16 14 14 11 15 -33 14 -39 -2 -49 1 -52 15
-2 11 6 22 22 29 34 16 33 33 -1 25 -16 -3 -22 -3 -15 0 10 5 9 10 -4 25 -17
19 -16 19 14 13 18 -4 32 -4 32 -1 0 3 -16 21 -36 41 -25 25 -34 41 -29 55 3
11 -1 36 -10 56 -12 29 -19 36 -35 32 -16 -4 -25 6 -50 55 -17 34 -28 64 -23
67 4 3 30 21 57 39 49 31 50 32 70 13 12 -10 48 -33 81 -49z m3773 2 c15 -3
55 -15 89 -25 33 -11 90 -24 125 -28 l63 -8 -35 -16 c-33 -15 -34 -17 -13 -23
30 -8 20 -22 -34 -45 -47 -20 -50 -39 -5 -39 15 0 34 -5 42 -10 13 -8 12 -10
-2 -10 -10 0 -18 -5 -18 -11 0 -8 15 -10 45 -7 39 5 44 4 33 -9 -26 -32 -54
-33 -119 -5 -54 23 -59 27 -38 33 24 5 23 6 -11 27 -19 12 -45 22 -58 22 -25
0 -97 34 -107 51 -12 18 2 21 53 10 43 -9 54 -7 93 12 39 19 41 22 20 25 -13
2 -28 -2 -33 -10 -7 -10 -8 -9 -4 5 4 13 0 17 -17 17 -24 0 -127 45 -127 56 0
3 7 3 16 0 9 -3 28 -9 42 -12z m-3970 -89 l32 -65 -40 -26 c-32 -21 -47 -25
-74 -20 -20 4 -38 11 -42 17 -3 6 -3 35 1 65 6 50 10 56 43 74 20 10 39 19 42
20 3 0 20 -29 38 -65z m3822 41 c0 -24 -57 -64 -116 -83 -54 -17 -57 -17 -70
2 -21 28 -17 43 14 59 34 17 92 30 92 20 0 -4 -8 -16 -17 -26 -16 -18 -16 -18
3 -12 10 4 33 18 49 31 35 26 45 29 45 9z m16 -91 c-5 -20 -19 -28 -77 -45
-40 -12 -77 -24 -84 -26 -7 -3 -15 4 -18 15 -4 16 4 22 42 36 91 33 100 37
118 57 16 18 18 18 21 3 2 -9 1 -27 -2 -40z m-4236 -8 c0 -4 -7 -10 -15 -13
-20 -8 -45 13 -45 37 0 17 1 17 30 1 16 -9 30 -21 30 -25z m-150 13 c0 -5 -4
-10 -10 -10 -5 0 -10 5 -10 10 0 6 5 10 10 10 6 0 10 -4 10 -10z m630 -40 c0
-22 -22 -36 -40 -25 -8 5 -6 13 6 26 22 25 34 24 34 -1z m2980 9 c0 -5 4 -8 8
-5 5 3 26 -7 48 -22 21 -14 61 -38 88 -53 l49 -27 -55 -36 c-96 -61 -183 -106
-266 -136 -45 -16 -146 -63 -225 -103 -79 -41 -182 -87 -228 -101 -192 -62
-292 -102 -439 -174 l-155 -77 -197 0 c-161 0 -199 3 -203 14 -8 21 3 26 78
40 37 6 118 30 180 52 62 23 191 67 289 99 134 44 199 71 271 115 102 61 199
99 287 113 48 7 73 22 190 107 74 54 163 122 198 152 63 53 82 63 82 42z
m-2990 -84 c0 -29 -5 -30 -54 -10 -45 19 -38 35 15 35 35 0 39 -3 39 -25z
m3900 10 c7 -9 8 -15 2 -15 -5 0 -12 7 -16 15 -3 8 -4 15 -2 15 2 0 9 -7 16
-15z m-134 -20 c13 -51 -2 -73 -76 -110 -38 -19 -71 -31 -74 -27 -6 9 29 42
44 42 6 0 10 4 10 8 0 12 -50 33 -61 27 -5 -4 -14 -3 -20 0 -17 11 52 51 99
58 31 4 42 2 42 -8 0 -8 4 -17 10 -20 6 -4 7 6 4 25 -8 37 13 42 22 5z m-3846
-21 c78 -25 102 -49 50 -49 -13 0 -25 -5 -27 -11 -4 -12 52 -46 61 -37 4 4 4
0 1 -9 -4 -10 -20 -18 -38 -20 l-32 -4 28 -14 c34 -17 31 -30 -14 -45 l-34
-12 33 -31 c17 -16 32 -33 32 -36 0 -3 -14 -6 -31 -6 -27 0 -30 -2 -19 -15 7
-8 19 -15 26 -15 19 0 18 -16 -1 -24 -22 -8 -18 -26 5 -26 26 0 26 -17 -1 -25
-34 -11 -38 -4 -59 115 -7 44 -8 44 -10 10 l-2 -35 -12 28 c-16 37 -26 24 -27
-37 0 -45 -2 -48 -10 -26 -6 14 -12 32 -14 40 -11 49 -18 70 -26 70 -5 0 -9
-8 -9 -19 0 -10 -7 -24 -15 -31 -26 -21 -19 33 8 58 30 28 111 46 137 30 38
-24 33 3 -7 43 l-42 40 -20 -20 c-11 -11 -34 -27 -52 -36 l-31 -17 4 82 c3 67
7 84 23 96 25 19 31 18 125 -12z m3946 7 c-3 -5 1 -14 9 -21 22 -18 18 -32 -7
-28 -28 4 -40 58 -13 58 9 0 14 -4 11 -9z m134 -32 c81 -20 127 -22 161 -5 18
9 35 13 38 10 10 -10 -30 -33 -68 -40 -20 -4 -53 -15 -74 -26 -28 -14 -37 -15
-35 -6 3 14 -3 18 -23 18 -5 0 -7 -4 -4 -10 3 -5 0 -8 -7 -6 -7 3 -25 7 -40
10 -27 6 -52 54 -42 81 5 12 9 12 27 0 12 -8 42 -19 67 -26z m-4439 11 c11 0
17 -4 14 -10 -3 -5 3 -10 15 -10 16 0 19 -4 12 -17 -5 -10 -7 -24 -5 -30 4
-10 -7 -11 -44 -7 -53 7 -83 20 -83 34 0 6 10 6 26 0 19 -7 31 -7 40 1 11 9
10 15 -9 31 -18 16 -19 19 -4 14 10 -3 28 -6 38 -6z m3748 -34 c48 -25 102
-56 118 -70 17 -14 36 -26 42 -26 6 0 11 -4 11 -10 0 -16 -61 -42 -86 -37 -13
2 -24 1 -24 -3 0 -10 31 -35 63 -48 15 -6 27 -16 27 -20 0 -10 -57 -22 -103
-22 l-29 0 24 -29 c13 -17 33 -30 44 -30 12 -1 27 -7 33 -15 7 -8 21 -12 34
-9 33 8 8 -12 -31 -25 -18 -6 -53 -9 -78 -5 -52 7 -57 -5 -15 -40 33 -27 90
-42 124 -31 l22 6 -22 -22 c-15 -16 -37 -24 -73 -28 -31 -3 -54 -10 -57 -18
-7 -20 -23 -17 -23 4 -1 9 -9 33 -19 52 l-19 34 -12 -59 c-11 -54 -14 -58 -23
-37 l-11 23 -12 -22 c-11 -22 -12 -22 -19 10 -5 23 -11 31 -22 27 -9 -4 -18 4
-25 24 -5 17 -13 30 -16 30 -4 0 -18 -27 -32 -60 -23 -55 -26 -58 -37 -37
l-12 22 -9 -25 -9 -24 -13 24 c-13 23 -13 24 -21 5 -7 -18 -8 -17 -9 5 -1 24
-1 25 -16 5 -14 -19 -15 -19 -20 3 -8 29 -24 29 -24 0 0 -13 -4 -29 -9 -36 -6
-11 -10 -10 -15 5 -7 17 -8 17 -22 -1 -13 -18 -15 -16 -35 32 -12 29 -25 52
-29 52 -5 0 -12 -16 -17 -36 -4 -19 -12 -35 -18 -35 -5 0 -15 -10 -21 -21 -11
-20 -12 -19 -23 12 -11 32 -11 33 -31 15 -11 -10 -20 -25 -20 -34 0 -10 -8
-17 -19 -17 -14 0 -21 9 -26 33 -8 46 -21 41 -34 -13 -10 -39 -14 -44 -27 -33
-12 10 -17 8 -29 -7 -13 -18 -14 -17 -15 13 0 18 -6 36 -14 40 -7 4 -19 19
-26 33 l-13 25 -10 -28 c-9 -29 -26 -34 -45 -15 -10 10 -18 6 -36 -17 l-24
-30 -13 28 c-16 35 -25 34 -38 -3 -10 -30 -26 -39 -33 -20 -6 18 -67 -1 -74
-22 -5 -17 -16 -19 -158 -17 -84 0 -158 4 -165 8 -7 5 4 14 31 26 24 10 69 34
100 53 31 19 148 65 260 103 237 81 279 98 373 151 65 37 165 81 276 122 25 9
71 32 103 51 31 19 82 51 113 70 31 19 61 35 65 35 5 0 48 -20 97 -44z m901
-75 c0 -28 -7 -33 -102 -80 -87 -43 -104 -48 -118 -37 -8 8 -26 17 -40 21 -36
10 -110 49 -110 58 0 8 47 -1 65 -12 16 -10 139 -28 157 -23 9 2 14 10 12 17
-4 8 12 19 44 29 27 9 58 26 67 36 24 26 25 25 25 -9z m-462 -109 c5 -15 -106
-85 -124 -78 -28 11 -9 38 46 67 56 30 71 32 78 11z m458 -26 c-7 -28 -60 -62
-131 -83 -27 -8 -55 -19 -62 -25 -7 -5 -13 -5 -17 0 -7 12 36 42 73 52 14 3
26 13 26 20 0 8 16 18 37 23 20 5 44 17 54 28 21 23 28 18 20 -15z m-4439 -58
c-3 -7 -5 -2 -5 12 0 14 2 19 5 13 2 -7 2 -19 0 -25z m4492 -377 l1 -94 38 7
c20 3 48 9 61 13 l25 6 -22 -30 c-16 -23 -34 -32 -77 -42 -31 -7 -58 -11 -59
-9 -3 3 9 407 15 518 3 49 15 -218 18 -369z m-2178 351 c17 -7 6 -13 -57 -31
-44 -13 -158 -51 -254 -86 -185 -67 -258 -90 -327 -100 -36 -6 -43 -4 -43 10
0 9 -4 13 -10 10 -5 -3 -10 -20 -10 -36 0 -18 -4 -28 -10 -24 -5 3 -10 13 -10
21 0 9 -7 22 -15 31 -9 8 -19 28 -22 44 -9 49 -23 43 -23 -10 0 -27 -3 -56 -6
-65 -9 -23 -24 -9 -24 20 0 14 -4 23 -9 19 -13 -7 -81 53 -81 71 0 10 14 14
53 14 61 1 289 50 332 73 80 41 437 68 516 39z m-2702 -19 c23 -14 31 -25 31
-46 l0 -29 -40 32 c-60 48 -53 78 9 43z m4525 -31 c13 -15 15 -25 8 -38 -6
-11 -11 -13 -16 -5 -4 6 -16 11 -27 11 -15 0 -19 7 -19 35 0 31 2 34 18 26 9
-5 25 -18 36 -29z m-3771 21 c-7 -2 -19 -2 -25 0 -7 3 -2 5 12 5 14 0 19 -2
13 -5z m4077 -30 c0 -57 -12 -70 -44 -49 -26 17 -26 16 -32 -13 -4 -20 -11
-28 -20 -24 -9 3 -14 -2 -15 -13 0 -11 -3 -14 -6 -6 -2 6 -11 12 -19 12 -8 0
-14 4 -14 9 0 5 -3 16 -6 25 -5 12 0 16 21 16 17 0 47 16 77 40 28 22 52 40
54 40 2 0 4 -17 4 -37z m-4716 -34 c-3 -5 -14 -14 -25 -19 -17 -10 -19 -7 -19
31 l0 42 25 -23 c13 -12 22 -27 19 -31z m126 35 c28 -12 39 -21 36 -31 -3 -8
-6 -32 -6 -54 0 -26 -4 -39 -13 -39 -18 0 -96 57 -103 74 -4 10 32 65 43 66 2
0 21 -7 43 -16z m4085 7 c-3 -6 1 -13 8 -18 19 -11 32 -53 17 -53 -7 0 -14 9
-17 20 -3 12 -14 20 -27 20 -11 0 -27 4 -35 9 -10 6 -6 11 15 19 38 14 46 14
39 3z m-3730 -11 c-3 -5 -14 -10 -23 -9 -14 0 -13 2 3 9 27 11 27 11 20 0z
m245 -21 c0 -11 -4 -17 -10 -14 -5 3 -10 13 -10 21 0 8 5 14 10 14 6 0 10 -9
10 -21z m-348 -50 c59 -19 108 -37 108 -42 0 -4 -12 -4 -26 -1 -21 5 -25 4
-19 -6 6 -10 1 -12 -21 -7 -27 5 -27 4 -9 -9 18 -13 43 -18 75 -15 13 2 13 1
0 -8 -8 -6 -36 -11 -62 -11 -27 0 -48 -4 -48 -8 0 -16 49 -34 79 -30 20 3 30
1 28 -6 -2 -6 -13 -12 -25 -14 -32 -5 -15 -32 20 -32 33 0 29 -16 -8 -30 -33
-13 -83 7 -159 63 l-65 48 0 76 c0 56 3 74 13 71 6 -2 60 -20 119 -39z m611
27 c16 -13 16 -14 -9 -20 -31 -8 -37 -5 -28 18 7 19 13 20 37 2z m3557 -6 c0
-14 -16 -21 -34 -14 -24 9 -19 19 9 22 14 1 25 -2 25 -8z m-146 -9 c3 -4 -6
-13 -19 -19 -22 -10 -25 -9 -25 8 0 20 33 29 44 11z m-4351 -35 c26 -19 27
-21 11 -33 -27 -19 -48 -16 -75 13 -23 25 -23 26 -5 39 20 15 24 14 69 -19z
m4254 12 c-3 -8 -6 -5 -6 6 -1 11 2 17 5 13 3 -3 4 -12 1 -19z m-157 -58 c14
0 12 18 -2 22 -7 3 11 9 40 15 58 11 59 11 46 -69 -7 -39 -36 -57 -61 -36 -11
9 -10 13 4 24 16 11 13 15 -29 34 -49 22 -78 44 -78 62 0 5 16 -4 35 -21 20
-17 40 -31 45 -31z m248 36 c-10 -7 -15 -16 -11 -19 3 -4 -1 -7 -10 -7 -22 0
-22 16 1 29 25 15 40 13 20 -3z m-2871 -18 c-3 -8 -6 -5 -6 6 -1 11 2 17 5 13
3 -3 4 -12 1 -19z m2767 -19 c10 9 14 -14 19 -111 4 -66 7 -165 7 -220 0 -85
-3 -101 -20 -118 -36 -36 -43 -26 -37 48 4 37 8 150 8 252 1 102 4 175 6 162
3 -17 8 -21 17 -13z m-3534 -25 c157 -42 247 -74 265 -94 21 -23 44 -27 25 -5
-11 13 -5 15 48 15 62 0 315 -39 412 -64 76 -20 232 -77 226 -83 -3 -3 -74 4
-158 16 -234 31 -534 63 -554 59 -11 -3 6 -8 36 -12 30 -4 107 -16 170 -27 63
-10 171 -26 240 -34 69 -9 152 -22 185 -29 56 -13 134 -26 245 -41 25 -4 81
-15 125 -25 44 -10 92 -21 108 -25 15 -3 27 -10 27 -16 0 -16 -193 -2 -536 37
-143 16 -151 15 -404 -32 -74 -14 -139 -30 -145 -35 -13 -12 78 -3 210 22 148
28 224 33 312 20 43 -6 139 -15 213 -21 74 -5 166 -16 203 -25 48 -11 93 -14
155 -10 48 3 116 2 152 -2 64 -9 63 -9 -66 -16 -72 -4 -145 -12 -162 -17 -18
-4 -142 -12 -277 -16 -219 -6 -245 -5 -251 9 -9 23 -92 53 -106 39 -9 -9 -9
-12 0 -12 7 0 29 -7 49 -15 26 -11 33 -19 26 -26 -7 -7 -26 -6 -64 5 -61 19
-132 21 -157 5 -13 -8 -65 -2 -217 25 -110 20 -210 36 -222 36 -12 0 -24 3
-27 8 -2 4 82 18 187 31 208 25 254 36 271 64 16 27 -28 60 -105 80 -63 16
-351 57 -393 57 -58 -1 29 -23 201 -52 197 -32 253 -48 253 -71 0 -21 -29 -27
-192 -34 -145 -6 -148 -6 -148 15 0 11 -6 23 -12 26 -7 3 5 4 27 1 114 -12
227 -17 222 -8 -4 6 -58 13 -122 16 -63 3 -124 11 -134 17 -11 5 -41 10 -68 9
l-48 -1 35 -11 c44 -13 42 -11 34 -31 -4 -10 -18 -16 -41 -16 -32 0 -34 -2
-22 -16 13 -16 9 -16 -50 -11 -76 8 -85 13 -43 28 34 12 46 41 13 32 -10 -3
-34 3 -52 13 l-34 17 28 9 c30 11 36 28 9 28 -21 0 -62 27 -62 41 0 5 8 9 18
9 9 1 28 7 41 14 23 13 22 13 -19 20 -61 10 -67 17 -31 32 34 14 34 34 1 34
-10 0 -22 5 -25 11 -4 6 -1 9 6 8 8 -1 22 1 32 4 51 20 52 21 12 25 -22 2 -44
8 -49 13 -19 18 79 9 174 -17z m-635 4 c25 -11 26 -15 20 -62 -11 -84 -12 -86
-48 -79 -45 8 -69 31 -57 54 6 10 10 20 10 23 0 13 -48 5 -60 -9 -21 -26 -30
-17 -30 32 0 44 1 45 18 30 24 -22 34 -21 74 3 39 23 39 24 73 8z m228 -125
c42 -30 77 -58 77 -63 0 -12 -31 -21 -51 -15 -11 4 -19 2 -19 -4 0 -6 9 -11
20 -11 10 0 24 -9 30 -21 13 -24 6 -36 -12 -22 -7 5 -39 19 -72 32 -53 22 -59
23 -68 7 -5 -9 -14 -16 -20 -16 -10 0 -4 120 8 163 6 20 4 21 107 -50z m-296
-38 c34 -17 62 -33 63 -37 0 -3 -18 -9 -40 -13 -39 -7 -50 -18 -30 -30 6 -3 7
-18 3 -33 -6 -24 -5 -26 10 -13 20 16 22 3 3 -21 -16 -21 -36 -24 -36 -5 0 7
-6 19 -12 25 -7 7 -14 25 -15 40 -1 15 -6 49 -11 75 -5 26 -7 46 -3 44 3 -1
34 -16 68 -32z m4337 27 c3 -5 -4 -21 -15 -38 l-19 -29 0 38 c0 26 4 37 14 37
8 0 17 -4 20 -8z m-2047 -18 c-3 -3 -12 -4 -19 -1 -8 3 -5 6 6 6 11 1 17 -2
13 -5z m1893 -50 c0 -49 -2 -55 -17 -49 -10 4 -24 8 -31 9 -7 1 -17 7 -24 14
-21 21 24 78 65 81 4 1 7 -24 7 -55z m-1802 39 c-16 -2 -40 -2 -55 0 -16 2 -3
4 27 4 30 0 43 -2 28 -4z m1729 -9 c-3 -3 -12 -4 -19 -1 -8 3 -5 6 6 6 11 1
17 -2 13 -5z m-1867 -14 c0 -5 -28 -11 -62 -11 -114 -2 -182 -9 -257 -24 -100
-21 -146 -19 -210 8 l-54 22 134 5 c251 11 449 10 449 0z m197 4 c-3 -3 -12
-4 -19 -1 -8 3 -5 6 6 6 11 1 17 -2 13 -5z m1233 -16 c0 -16 -12 -18 -114 -18
-66 0 -117 4 -121 10 -16 25 10 31 121 28 101 -3 114 -5 114 -20z m107 -1 c-6
-18 -91 -15 -95 3 -2 12 7 14 48 12 33 -3 50 -8 47 -15z m-3372 -7 c-3 -5 -18
-10 -33 -10 -21 0 -24 2 -12 10 20 13 53 13 45 0z m-349 -66 c-4 -14 -11 -22
-15 -19 -9 5 -6 33 6 65 9 23 16 -16 9 -46z m2618 46 c-12 -4 -147 -11 -300
-14 -153 -4 -326 -8 -384 -11 -72 -3 -96 -1 -75 5 68 21 809 40 759 20z m986
-20 c0 -5 -7 -10 -15 -10 -8 0 -15 -4 -15 -10 0 -5 5 -10 10 -10 26 0 6 -19
-22 -22 l-33 -4 28 -12 c27 -12 39 -39 12 -29 -20 8 -28 -8 -10 -23 19 -16 10
-30 -15 -23 -14 4 -20 0 -20 -10 0 -9 8 -17 18 -20 15 -3 15 -5 -3 -12 -11 -5
-30 -22 -43 -37 -13 -15 -29 -28 -35 -28 -7 0 -4 7 5 14 16 12 16 14 -10 26
-27 14 -27 14 -4 18 19 3 21 6 11 18 -6 8 -17 14 -24 14 -6 0 -20 9 -31 21
-18 20 -18 20 11 14 l30 -6 -27 21 c-34 26 -36 40 -6 40 l22 0 -22 16 c-12 8
-22 26 -22 40 0 24 0 24 105 24 63 0 105 -4 105 -10z m163 -12 c-8 -9 -33 -26
-54 -36 l-39 -19 31 -7 c17 -3 45 -6 61 -6 16 0 27 -4 24 -9 -9 -14 -116 -54
-124 -46 -4 4 -1 10 6 12 20 7 14 33 -8 33 -18 0 -19 3 -9 21 7 14 7 24 1 28
-5 3 -12 16 -16 28 -7 21 -5 22 68 20 69 -2 73 -3 59 -19z m737 -17 c-36 -15
-103 -41 -150 -56 -102 -34 -95 -42 15 -16 44 11 81 18 83 16 3 -3 -62 -27
-151 -55 l-58 -18 3 41 3 41 145 38 c173 45 197 47 110 9z m80 10 c0 -14 -13
-24 -47 -35 -62 -21 -67 -13 -9 16 25 12 46 26 46 30 0 4 2 8 5 8 3 0 5 -9 5
-19z m-4431 -10 c55 -29 68 -47 47 -69 -9 -10 -16 -26 -16 -35 0 -23 -16 -21
-41 4 -24 24 -22 26 -42 -31 -10 -29 -16 -37 -16 -23 -1 29 20 173 26 173 2 0
21 -9 42 -19z m1666 9 c7 -11 -35 -11 -80 0 -26 7 -23 8 22 9 28 0 55 -3 58
-9z m113 -7 c-16 -2 -40 -2 -55 0 -16 2 -3 4 27 4 30 0 43 -2 28 -4z m2786
-30 c3 -4 -4 -13 -16 -20 -22 -12 -22 -12 12 -13 33 -1 33 -2 13 -12 -28 -13
-30 -28 -5 -28 50 0 19 -17 -111 -60 -195 -65 -299 -112 -442 -200 -39 -24
-107 -65 -152 -91 l-83 -48 -52 24 c-29 14 -75 28 -101 31 l-48 7 98 37 c54
21 152 60 218 88 66 27 212 77 325 112 113 34 209 67 215 71 10 10 -44 5 -174
-17 -47 -7 -87 -12 -89 -9 -10 10 174 88 261 110 100 26 120 29 131 18z
m-4327 -79 c2 -5 -19 -21 -46 -36 -52 -30 -73 -36 -53 -16 18 18 15 33 -10 47
-13 6 -24 22 -24 35 l-2 24 66 -22 c36 -12 67 -27 69 -32z m3398 -4 c-21 -22
-41 -37 -44 -34 -6 6 64 74 76 74 4 0 -10 -18 -32 -40z m325 6 c0 -31 -3 -34
-44 -45 -63 -15 -66 -15 -66 18 0 26 5 30 53 44 28 8 53 16 55 16 1 1 2 -14 2
-33z m-1967 7 c-13 -2 -33 -2 -45 0 -13 2 -3 4 22 4 25 0 35 -2 23 -4z m178
-24 c27 -12 48 -24 45 -26 -5 -6 -136 36 -136 43 0 11 46 2 91 -17z m-1382
-58 c192 -39 369 -76 392 -82 l41 -13 -163 -33 c-156 -31 -172 -32 -319 -26
-112 4 -171 11 -212 24 -50 17 -129 26 -117 15 2 -3 38 -13 79 -24 67 -18 72
-21 50 -30 -24 -9 -24 -9 18 -31 23 -12 42 -24 42 -26 0 -3 -25 -5 -54 -5 -50
0 -56 3 -68 27 -14 30 -41 40 -105 42 -35 1 -45 -4 -66 -30 l-24 -30 -81 13
c-63 9 -77 14 -60 21 12 4 27 6 34 3 7 -3 20 1 30 9 17 12 15 14 -21 20 -22 3
-53 10 -70 15 -26 8 -24 9 19 7 32 -1 50 2 53 11 3 8 -5 12 -24 12 l-28 0 38
22 c20 12 37 25 37 29 0 4 -19 7 -41 6 -26 -1 -44 3 -46 11 -3 6 1 12 8 12 7
0 30 12 50 26 43 30 93 33 214 13 104 -16 113 -6 20 23 -79 26 -81 34 -8 37
17 0 189 -30 382 -68z m3015 40 c10 -16 -5 -40 -27 -46 -69 -19 -406 -129
-403 -132 4 -5 219 41 315 68 71 19 105 18 68 -2 -9 -6 -17 -17 -17 -24 0 -8
-8 -15 -18 -15 -64 0 -398 -100 -517 -156 -17 -7 -65 44 -58 63 5 13 2 15 -12
10 -21 -9 -55 0 -55 14 0 5 12 6 26 3 18 -5 25 -3 21 3 -12 19 15 29 184 72
92 23 236 66 320 96 171 60 166 59 173 46z m686 -57 c-57 -18 -106 -32 -108
-29 -5 5 179 64 198 64 8 -1 -32 -16 -90 -35z m-2347 9 c-7 -2 -19 -2 -25 0
-7 3 -2 5 12 5 14 0 19 -2 13 -5z m-95 -10 c-10 -2 -28 -2 -40 0 -13 2 -5 4
17 4 22 1 32 -1 23 -4z m-1993 -13 c-3 -5 -16 -10 -28 -9 -20 1 -20 2 3 9 14
4 26 8 28 9 2 1 0 -3 -3 -9z m1873 3 c-16 -2 -40 -2 -55 0 -16 2 -3 4 27 4 30
0 43 -2 28 -4z m-141 -10 c-20 -2 -52 -2 -70 0 -17 2 0 4 38 4 39 0 53 -2 32
-4z m2133 -4 c0 -16 -36 -29 -48 -17 -19 19 -14 27 18 26 17 -1 30 -5 30 -9z
m-2292 -6 c-15 -2 -42 -2 -60 0 -18 2 -6 4 27 4 33 0 48 -2 33 -4z m-140 -10
c-16 -2 -40 -2 -55 0 -16 2 -3 4 27 4 30 0 43 -2 28 -4z m-128 -14 c-25 -4
-56 -8 -70 -8 -23 0 -23 1 -5 9 11 5 43 8 70 8 l50 -1 -45 -8z m-45 -77 c17
-8 26 -16 20 -18 -5 -1 -86 -4 -180 -7 -152 -4 -166 -3 -130 9 62 21 197 42
230 36 17 -3 44 -12 60 -20z m2395 9 c0 -33 -232 -127 -397 -161 -115 -24
-110 -24 -89 -1 27 30 129 72 301 122 171 51 185 54 185 40z m700 -41 c0 -5
-4 -10 -10 -10 -5 0 -10 5 -10 10 0 6 5 10 10 10 6 0 10 -4 10 -10z m-3950
-25 c20 -18 28 -41 10 -30 -5 3 -10 1 -10 -5 0 -6 -4 -8 -10 -5 -5 3 -10 1
-10 -6 0 -8 -4 -8 -15 1 -8 7 -15 19 -15 26 0 16 -26 19 -35 4 -8 -13 -55 -13
-55 -1 0 40 100 52 140 16z m443 11 c36 -15 73 -51 60 -59 -5 -3 -62 -13 -127
-22 -65 -9 -130 -21 -143 -26 -33 -12 -183 -12 -183 1 0 15 48 24 127 25 60 0
70 2 63 15 -10 19 -49 54 -75 68 -32 18 236 16 278 -2z m87 -6 c22 -11 40 -25
40 -30 0 -15 -7 -13 -52 20 -48 35 -44 38 12 10z m3390 10 c0 -5 -4 -10 -10
-10 -5 0 -10 5 -10 10 0 6 5 10 10 10 6 0 10 -4 10 -10z m-139 -53 c-13 -13
-26 -3 -16 12 3 6 11 8 17 5 6 -4 6 -10 -1 -17z m-31 -3 c0 -8 -4 -13 -9 -9
-5 3 -12 1 -16 -5 -3 -5 -1 -10 4 -10 19 0 12 -15 -11 -25 -13 -6 -21 -17 -19
-25 2 -8 6 -22 8 -31 4 -13 -10 -20 -74 -34 -43 -9 -116 -29 -163 -42 -165
-49 -290 -80 -290 -71 0 20 128 99 232 143 126 53 278 107 278 98 0 -3 7 0 15
7 8 7 15 9 15 4 0 -4 5 -3 12 4 16 16 18 15 18 -4z m-3821 -40 c42 -14 57 -23
41 -23 -14 -1 -49 8 -78 19 -29 11 -69 20 -90 20 -26 0 -33 3 -23 9 18 12 68
4 150 -25z m2421 20 c0 -2 -7 -4 -15 -4 -8 0 -15 4 -15 10 0 5 7 7 15 4 8 -4
15 -8 15 -10z m-1757 -14 c-31 -13 -310 -52 -341 -48 -15 2 14 9 63 16 50 7
128 19 175 26 47 8 94 14 105 14 19 1 19 0 -2 -8z m2556 -46 c26 -4 31 -8 20
-15 -8 -5 -33 -6 -55 -3 -46 7 -221 -24 -331 -57 -72 -22 -143 -58 -180 -92
-18 -16 -23 -17 -23 -5 0 20 54 94 78 107 33 18 179 52 280 66 91 12 127 12
211 -1z m846 -53 c-4 -34 -10 -63 -13 -65 -4 -1 -20 12 -35 30 l-29 34 26 10
c15 5 31 22 36 36 16 42 23 21 15 -45z m-2025 14 c0 -51 -19 -61 -44 -22 -21
31 -10 67 20 67 22 0 24 -4 24 -45z m283 28 c-7 -2 -19 -2 -25 0 -7 3 -2 5 12
5 14 0 19 -2 13 -5z m-229 -22 c10 -11 15 -24 12 -30 -3 -5 0 -12 6 -14 7 -3
1 -6 -14 -6 -21 -1 -28 4 -28 18 0 11 -3 26 -6 35 -8 22 9 20 30 -3z m1026
-15 c0 -3 -17 -14 -38 -26 -21 -12 -58 -46 -82 -77 -66 -82 -83 -99 -88 -85
-2 6 7 36 21 65 24 53 68 96 117 116 26 10 70 14 70 7z m1000 -12 c0 -8 -5
-12 -10 -9 -6 4 -8 11 -5 16 9 14 15 11 15 -7z m-1486 -69 c-56 -75 -107 -115
-147 -115 -12 0 -28 -4 -36 -9 -19 -12 72 -31 182 -38 48 -3 87 -9 87 -12 0
-4 -13 -12 -30 -18 -39 -15 -40 -47 -2 -66 40 -21 210 -69 225 -64 6 2 -28 16
-78 31 -49 14 -105 33 -122 41 -38 17 -46 41 -10 31 22 -7 139 -34 507 -121
216 -50 313 -80 329 -99 8 -10 3 -17 -23 -31 -33 -18 -34 -18 -64 4 -43 30
-132 68 -178 76 -30 6 -16 -5 66 -46 107 -55 204 -122 215 -149 4 -10 -8 -27
-34 -50 -27 -24 -51 -61 -77 -118 -26 -58 -45 -87 -64 -97 -29 -15 -126 -39
-204 -50 -35 -5 -45 -9 -35 -16 8 -4 32 -6 54 -3 126 16 122 16 99 -4 -19 -16
-43 -19 -194 -20 -107 0 -177 -5 -183 -11 -8 -8 23 -11 105 -11 67 0 119 -4
123 -10 4 -7 -55 -10 -169 -10 -97 0 -176 2 -176 4 0 9 138 90 223 132 110 54
114 57 99 88 -9 19 -7 29 12 57 12 19 33 60 46 91 20 50 22 60 10 88 -18 43
-78 92 -163 133 -68 32 -127 53 -127 43 0 -2 37 -22 83 -45 92 -44 161 -104
169 -145 7 -33 -22 -91 -69 -142 -19 -22 -28 -28 -19 -14 26 39 46 87 46 110
0 55 -130 148 -288 204 -133 47 -403 106 -489 106 -18 0 -33 4 -33 10 0 5 43
30 96 55 53 25 94 48 91 51 -6 6 -124 -40 -286 -111 -57 -25 -106 -43 -108
-41 -7 7 111 80 195 121 45 21 82 42 82 46 0 4 -24 12 -52 18 -67 14 -347 50
-413 53 l-50 3 60 23 c69 27 232 53 730 115 17 2 33 5 38 6 4 0 -18 -33 -49
-74z m305 25 c-59 -54 -113 -77 -204 -85 l-60 -6 30 26 c44 39 118 74 199 95
39 10 75 19 80 19 6 1 -15 -21 -45 -49z m866 27 c4 5 5 3 1 -4 -4 -7 8 -23 29
-39 20 -15 46 -46 57 -68 l21 -41 -47 50 c-43 46 -45 47 -31 17 16 -32 16 -33
-3 -23 -11 6 -34 27 -52 48 -57 66 -61 57 -15 -34 40 -78 55 -123 40 -123 -3
0 -17 7 -31 16 -29 20 -195 43 -314 45 -47 0 -96 4 -110 9 -23 7 -19 10 42 39
37 17 123 47 190 67 68 19 137 41 153 49 25 11 33 10 46 -1 9 -8 19 -11 24 -7z
m165 13 c0 -5 -5 -10 -11 -10 -5 0 -7 5 -4 10 3 6 8 10 11 10 2 0 4 -4 4 -10z
m-95 -21 c9 -28 2 -32 -29 -18 -20 9 -23 15 -15 26 17 19 37 16 44 -8z m45 -1
c0 -4 -4 -8 -9 -8 -6 0 -12 4 -15 8 -3 5 1 9 9 9 8 0 15 -4 15 -9z m55 -8 c-3
-5 -1 -10 5 -10 6 0 8 -4 5 -10 -3 -5 -2 -10 2 -10 5 0 10 -15 11 -32 3 -34 0
-33 -36 15 -22 30 -20 57 5 57 8 0 11 -4 8 -10z m172 4 c22 -6 22 -7 7 -37
l-16 -31 -14 33 c-19 46 -19 46 23 35z m-207 -47 c0 -23 -2 -22 -19 10 -10 19
-9 22 4 17 8 -4 15 -15 15 -27z m-597 -104 c4 -3 -23 -16 -60 -28 -85 -27
-143 -57 -187 -96 l-35 -31 -75 16 c-86 18 -146 40 -146 55 0 19 34 29 155 45
66 9 163 23 215 30 120 17 125 17 133 9z m-1403 -7 c0 -9 -98 -39 -147 -45
-60 -8 -59 3 1 30 35 16 146 27 146 15z m230 -11 c0 -2 -26 -12 -57 -21 -32
-9 -82 -29 -111 -45 -49 -28 -57 -29 -110 -21 l-57 9 55 26 c75 36 154 56 223
56 31 1 57 -1 57 -4z m616 -13 c14 -8 13 -11 -7 -26 -27 -18 -43 -21 -33 -5
11 19 -18 29 -91 30 -38 0 -81 5 -95 10 -16 5 18 7 93 4 65 -2 125 -8 133 -13z
m-491 -1 c42 -8 40 -11 -30 -32 -22 -6 -67 -25 -99 -41 -50 -25 -66 -29 -103
-23 -43 6 -44 7 -27 26 9 10 48 29 85 41 37 12 66 25 63 30 -6 10 58 10 111
-1z m1369 -7 c29 -4 46 -12 46 -20 0 -8 18 -21 40 -30 55 -22 51 -35 -5 -16
-25 8 -45 18 -45 23 0 5 -8 9 -18 9 -10 0 -28 7 -40 16 -35 24 -38 9 -3 -17
28 -20 29 -23 13 -35 -9 -7 -39 -14 -65 -14 l-49 0 31 -26 c32 -26 41 -54 18
-54 -6 0 -27 4 -45 9 -25 8 -32 7 -32 -5 0 -8 5 -14 10 -14 6 0 10 -7 10 -15
0 -20 -14 -19 -180 14 -80 16 -162 32 -182 35 -46 8 -55 21 -33 46 64 71 339
120 529 94z m-1731 -119 c67 -13 113 -24 101 -24 -11 -1 -69 8 -129 19 -60 11
-110 20 -112 20 -2 0 -3 5 -3 11 0 5 5 7 11 4 6 -4 65 -18 132 -30z m582 -54
l90 -18 -202 1 c-112 1 -203 2 -203 4 0 1 15 11 33 23 28 17 42 19 112 14 44
-4 121 -14 170 -24z m261 -66 c192 -69 284 -139 284 -215 0 -32 -31 -79 -65
-100 -17 -10 -76 -25 -137 -34 -118 -17 -175 -34 -260 -77 -73 -37 -105 -39
-57 -3 66 50 168 106 234 129 36 12 68 24 70 27 2 2 6 23 9 48 3 25 9 46 13
48 5 1 30 13 57 25 l50 23 -65 27 c-35 15 -120 43 -189 63 -69 21 -127 39
-130 41 -3 3 6 13 19 24 27 22 36 21 167 -26z m-133 -62 c-7 -2 -19 -2 -25 0
-7 3 -2 5 12 5 14 0 19 -2 13 -5z m44 -9 c-3 -3 -12 -4 -19 -1 -8 3 -5 6 6 6
11 1 17 -2 13 -5z m82 -18 c31 -8 73 -18 94 -21 45 -7 48 -21 5 -27 -23 -4
-52 4 -102 28 -78 38 -78 41 3 20z m151 -280 c0 -9 -171 -65 -215 -69 l-50 -5
43 19 c48 23 222 66 222 55z m712 -120 c82 -16 152 -40 86 -30 -21 3 -77 7
-125 7 -94 1 -125 -9 -202 -67 -24 -18 -47 -26 -75 -26 l-40 0 49 51 c28 28
64 57 80 65 39 17 135 17 227 0z m41 -55 c14 -5 6 -10 -29 -19 -26 -7 -61 -22
-77 -34 -32 -23 -147 -39 -147 -21 0 11 47 56 75 71 22 13 149 15 178 3z m412
-57 c90 -10 92 -18 12 -38 -39 -10 -142 -40 -227 -67 -85 -28 -162 -52 -170
-54 -30 -10 77 78 155 126 73 45 84 49 125 45 25 -3 72 -8 105 -12z m-557 -81
c-27 -2 -69 -2 -95 0 -27 2 -5 3 47 3 52 0 74 -1 48 -3z"/>
<path d="M3229 3367 c-30 -25 -119 -134 -119 -145 1 -8 99 98 131 141 24 32
22 33 -12 4z"/>
<path d="M3535 3359 c17 -12 56 -55 87 -95 58 -74 114 -114 161 -114 14 0 39
-17 67 -46 39 -40 139 -114 155 -114 17 0 -2 25 -54 68 -58 49 -129 124 -184
196 -43 55 -45 35 -3 -24 20 -27 34 -50 31 -50 -25 0 -104 56 -171 121 -45 44
-90 79 -100 79 -15 0 -12 -5 11 -21z"/>
<path d="M2957 3104 c-53 -48 -97 -91 -97 -96 0 -6 45 32 100 82 91 84 106
100 97 100 -1 0 -46 -39 -100 -86z"/>
<path d="M3739 3074 c57 -54 109 -100 115 -102 17 -5 -144 150 -184 177 -19
13 12 -21 69 -75z"/>
<path d="M3950 2963 c0 -9 50 -93 56 -93 2 0 -7 23 -21 50 -23 46 -35 60 -35
43z"/>
<path d="M3774 2851 c15 -24 54 -31 83 -16 l28 15 -42 0 c-23 0 -49 3 -59 7
-12 4 -15 3 -10 -6z"/>
<path d="M4027 2800 c13 -14 83 -29 128 -29 25 1 23 3 -16 14 -83 22 -125 28
-112 15z"/>
<path d="M3624 2748 l-19 -23 23 19 c21 18 27 26 19 26 -2 0 -12 -10 -23 -22z"/>
<path d="M3924 2685 c-17 -13 -17 -14 -1 -15 9 0 17 5 17 11 0 5 5 7 10 4 6
-3 10 -1 10 4 0 15 -13 14 -36 -4z"/>
<path d="M1608 1973 c12 -2 30 -2 40 0 9 3 -1 5 -23 4 -22 0 -30 -2 -17 -4z"/>
<path d="M1700 1860 c14 -4 70 -8 125 -8 81 0 92 2 55 9 -60 10 -214 10 -180
-1z"/>
<path d="M1870 1762 c0 -4 20 -18 45 -30 55 -27 60 -10 5 18 -43 22 -50 24
-50 12z"/>
<path d="M1300 1633 c69 -26 149 -49 145 -42 -6 9 -130 50 -149 48 -6 0 -4 -3
4 -6z"/>
<path d="M705 1550 c-3 -5 -3 -10 2 -10 4 0 19 -3 33 -6 24 -5 24 -5 6 10 -23
19 -32 20 -41 6z"/>
<path d="M3285 1240 c-29 -7 -28 -8 10 -8 22 0 63 3 90 8 l50 7 -60 0 c-33 1
-73 -3 -90 -7z"/>
<path d="M3344 1005 c-25 -19 -1 -19 41 0 30 13 30 13 4 14 -14 1 -34 -6 -45
-14z"/>
<path d="M3512 956 c8 -9 98 -37 98 -30 0 5 -40 21 -78 30 -15 4 -24 4 -20 0z"/>
<path d="M4060 820 c104 -56 142 -87 160 -130 17 -41 -2 -74 -75 -130 -33 -26
-70 -64 -82 -86 -17 -31 -41 -50 -108 -88 -48 -26 -84 -50 -82 -53 14 -13 168
87 233 151 39 39 87 85 107 102 29 25 37 38 37 65 0 67 -63 130 -183 184 -98
44 -102 36 -7 -15z"/>
<path d="M3363 4300 c-38 -23 -58 -53 -68 -97 -5 -26 -12 -33 -30 -33 -13 0
-27 -5 -30 -11 -4 -6 -19 -7 -35 -4 -40 9 -96 -18 -115 -54 -15 -31 -16 -31
-98 -32 -45 -1 -109 -4 -142 -8 -33 -3 219 -6 560 -6 341 0 590 3 553 6 -56 5
-72 10 -102 37 -42 36 -94 49 -143 34 -30 -9 -39 -7 -71 14 -24 17 -47 24 -64
21 -26 -3 -28 -1 -28 31 0 96 -104 153 -187 102z"/>
<path d="M3960 4220 c-30 -4 216 -7 548 -8 396 -1 602 1 602 8 0 11 -1058 11
-1150 0z"/>
<path d="M2958 4023 c232 -2 612 -2 845 0 232 1 42 2 -423 2 -465 0 -655 -1
-422 -2z"/>
<path d="M0 3810 c0 -6 82 -10 228 -9 136 0 219 4 207 9 -29 12 -435 12 -435
0z"/>
<path d="M1289 3633 c-13 -16 -12 -17 4 -4 9 7 17 15 17 17 0 8 -8 3 -21 -13z"/>
<path d="M1578 3593 c7 -3 16 -2 19 1 4 3 -2 6 -13 5 -11 0 -14 -3 -6 -6z"/>
<path d="M1761 3544 c9 -9 25 -14 35 -12 14 3 10 7 -16 16 -32 12 -34 11 -19
-4z"/>
<path d="M2603 3433 c65 -2 168 -2 230 0 62 1 9 3 -118 3 -126 0 -177 -2 -112
-3z"/>
<path d="M1558 3263 c12 -2 22 -10 22 -18 0 -11 -35 -13 -171 -13 -94 0 -173
-3 -176 -6 -4 -3 189 -6 427 -6 238 0 431 2 429 4 -2 2 -105 6 -229 9 -177 4
-231 9 -255 21 -16 9 -39 15 -50 15 -17 -2 -17 -2 3 -6z"/>
<path d="M1595 3131 c11 -4 106 -4 210 -1 l190 6 -210 2 c-115 0 -201 -3 -190
-7z"/>
<path d="M795 3120 c-14 -6 -2 -9 42 -9 34 -1 65 4 68 9 8 12 -81 12 -110 0z"/>
<path d="M860 3070 c-25 -4 185 -7 465 -7 340 1 455 3 345 7 -215 9 -752 9
-810 0z"/>
<path d="M3178 1843 c7 -3 16 -2 19 1 4 3 -2 6 -13 5 -11 0 -14 -3 -6 -6z"/>
<path d="M2690 1820 l-195 -6 265 -1 c146 0 290 3 320 7 63 9 -58 9 -390 0z"/>
<path d="M2845 1679 c-79 -24 -366 -60 -680 -84 -217 -17 -262 -23 -271 -36
-7 -11 1 -11 65 1 29 5 156 19 284 30 449 39 647 68 647 95 0 6 -8 5 -45 -6z"/>
<path d="M105 1341 c-3 -5 0 -22 7 -36 11 -24 10 -29 -7 -41 -18 -13 -22 -12
-46 17 -30 37 -61 35 -52 -3 3 -13 10 -29 16 -35 6 -9 4 -15 -7 -19 -19 -7
-21 -51 -3 -73 16 -19 50 -141 42 -149 -3 -3 -5 1 -5 9 0 8 -11 32 -25 54
l-24 40 -1 -342 0 -343 68 0 68 0 38 -51 c29 -39 33 -50 18 -45 -22 7 -169 36
-183 36 -5 0 -9 -78 -9 -180 l0 -180 625 0 c571 0 625 1 625 16 0 13 7 16 38
11 20 -2 48 -1 62 3 23 7 22 8 -11 9 -19 1 -44 8 -55 16 -17 13 -10 14 73 15
50 0 95 5 98 10 4 6 -41 10 -127 10 -98 1 -140 5 -158 15 -23 13 -12 15 115
13 115 -1 147 2 180 17 35 16 38 19 20 26 -12 4 28 8 97 8 78 1 119 5 124 13
15 24 -59 69 -191 118 l-30 12 25 14 c25 13 25 14 -7 8 -20 -4 -33 -2 -33 4 0
11 33 22 68 22 12 0 22 5 22 10 0 6 -31 10 -72 10 -51 0 -68 3 -58 10 8 5 42
10 75 10 59 1 95 15 95 39 0 8 -39 11 -127 11 -71 0 -135 5 -143 10 -10 7 30
10 122 10 75 0 139 4 142 9 3 4 46 11 96 13 135 8 196 58 71 58 -46 0 -62 4
-77 21 -10 12 -41 34 -69 50 -35 20 -44 29 -29 29 20 0 53 -19 123 -71 29 -21
32 -22 83 -6 29 8 89 18 133 21 43 3 83 10 89 16 13 13 -11 38 -76 77 -77 47
-152 63 -291 63 l-119 0 14 -22 c9 -13 24 -24 34 -26 18 -3 18 -2 0 13 -18 14
-15 15 45 15 105 -1 208 -18 246 -41 19 -12 32 -23 29 -26 -2 -3 -63 2 -135
11 -72 9 -148 16 -171 16 -34 0 -43 5 -59 30 -22 38 -55 182 -46 208 4 13 25
25 65 36 94 27 149 30 200 12 57 -20 83 -20 120 -1 35 18 37 26 10 50 -41 37
-88 128 -83 161 7 43 -18 62 -51 40 -22 -14 -30 -14 -68 -2 -159 52 -311 96
-331 96 -13 0 -54 -11 -93 -25 l-69 -25 50 5 c28 2 67 7 87 11 36 6 78 -4 178
-42 19 -7 54 -19 78 -25 40 -12 42 -14 42 -51 0 -61 54 -63 62 -2 l3 25 45
-23 c27 -14 50 -35 59 -53 7 -16 23 -47 33 -69 27 -52 13 -65 -46 -42 -60 23
-64 32 -21 50 19 8 35 19 35 23 0 14 -22 33 -37 33 -11 0 -11 -5 -3 -20 10
-18 7 -22 -26 -36 -61 -25 -118 -2 -114 48 4 39 0 58 -9 58 -11 0 -32 -90 -24
-103 3 -5 0 -8 -8 -5 -18 6 -23 52 -10 90 6 17 9 33 7 36 -7 7 -56 -96 -56
-118 0 -11 -5 -20 -10 -20 -13 0 -30 43 -30 76 0 16 -4 23 -11 18 -7 -4 -9
-22 -6 -48 3 -23 2 -48 -3 -56 -8 -12 -10 -11 -10 5 0 11 -8 31 -16 45 l-15
25 5 -32 c8 -50 -3 -88 -36 -122 -53 -55 -85 -36 -113 67 -5 18 -10 21 -20 12
-21 -17 -29 25 -17 88 12 65 -2 58 -23 -10 -8 -29 -21 -55 -28 -60 -18 -12
-117 -9 -156 5 -27 10 -37 21 -48 53 -8 23 -24 51 -37 63 l-23 21 11 -49 c15
-74 -4 -124 -70 -188 l-54 -53 25 -69 c14 -37 25 -71 25 -73 0 -11 -83 11 -91
23 -5 8 -9 31 -9 52 0 31 9 49 42 88 l41 49 -41 88 c-23 48 -42 101 -42 117
-1 27 -2 28 -14 13 -7 -10 -16 -14 -21 -10 -4 4 -5 -9 -1 -28 3 -19 9 -68 12
-107 6 -67 5 -76 -19 -112 -24 -36 -26 -47 -21 -99 l7 -60 -94 -22 c-51 -12
-105 -28 -120 -36 -39 -20 -42 -18 -36 19 5 28 4 29 -6 13 -7 -11 -25 -33 -40
-50 l-29 -31 6 30 c2 17 19 57 37 88 25 42 41 60 66 68 43 14 53 30 11 18 -18
-5 -34 -9 -36 -9 -1 0 4 16 12 35 20 46 13 45 -14 -3 -19 -34 -24 -37 -59 -34
-21 2 -54 -1 -74 -6 -46 -13 -47 -8 -5 14 29 15 88 69 88 80 0 8 -55 -9 -95
-29 -22 -11 -60 -36 -85 -56 -35 -28 -28 -17 33 49 43 47 86 97 94 111 l16 26
142 -68 c78 -38 147 -69 152 -69 6 0 13 6 16 14 4 11 -8 20 -41 31 -84 30 -92
34 -92 50 0 8 -9 15 -20 15 -29 0 -102 39 -95 50 8 13 81 13 106 0 27 -15 25
5 -3 24 -12 9 -33 16 -45 16 -13 0 -40 15 -60 34 -46 40 -72 50 -104 37 -13
-5 -20 -10 -15 -10 5 -1 3 -7 -3 -15 -9 -11 -17 -11 -46 3 -19 9 -34 19 -35
23 0 4 14 14 30 23 35 18 42 50 8 40 -20 -7 -21 -5 -15 43 3 27 3 52 0 55 -10
11 -33 -6 -33 -24 0 -28 -38 -24 -62 6 -21 26 -33 31 -43 16z m107 -113 c-6
-6 -20 -8 -33 -6 -22 3 -22 4 -5 21 14 14 21 15 32 6 9 -8 11 -16 6 -21z
m1453 -26 c-3 -3 -11 0 -18 7 -9 10 -8 11 6 5 10 -3 15 -9 12 -12z m100 -11
c-3 -6 -11 -11 -17 -11 -6 0 -6 6 2 15 14 17 26 13 15 -4z m-1386 -35 c15 -8
33 -21 39 -29 10 -12 8 -16 -15 -20 -37 -7 -50 0 -62 34 -11 33 -4 36 38 15z
m-288 -55 c6 -20 9 -56 7 -81 l-3 -45 -11 35 c-7 19 -21 58 -32 86 l-21 51 25
-5 c17 -3 27 -14 35 -41z m39 -56 c-5 -40 -8 -49 -9 -25 -1 19 -4 53 -7 75 -6
35 -5 38 8 25 12 -12 13 -29 8 -75z m63 65 c37 -1 38 -17 4 -79 l-34 -62 -7
32 c-3 17 -6 52 -6 76 0 37 3 44 16 39 9 -3 21 -6 27 -6z m98 -28 l36 -17 -60
-49 c-52 -42 -59 -46 -53 -25 9 32 11 39 20 77 9 36 8 36 57 14z m837 -110
c43 3 84 7 92 9 9 3 14 -2 12 -11 -17 -76 -23 -134 -20 -182 2 -32 3 -58 1
-58 -2 0 -14 7 -26 15 -20 13 -266 49 -274 41 -2 -2 6 -15 18 -29 11 -15 16
-27 10 -27 -17 0 -50 50 -57 86 -5 28 0 43 26 84 24 38 37 49 49 44 87 -37
203 -42 247 -9 30 21 12 26 -51 14 -64 -12 -109 -6 -161 18 -49 24 -42 34 12
16 32 -11 68 -14 122 -11z m232 -93 c0 -26 30 -70 89 -131 42 -45 44 -48 21
-48 -14 1 -56 7 -94 14 -38 7 -77 11 -87 9 -11 -3 -19 0 -19 6 0 17 49 143 61
158 17 19 29 16 29 -8z m-969 -81 c-16 -24 -44 -56 -62 -73 -28 -25 -30 -26
-14 -5 11 14 33 40 50 59 l30 34 -30 -7 c-16 -4 -39 -9 -50 -11 -11 -3 3 6 30
19 72 35 80 32 46 -16z m328 -72 c22 -20 180 -97 269 -131 l74 -29 -109 -28
c-59 -15 -129 -33 -155 -39 -27 -7 -51 -9 -55 -5 -4 3 15 29 43 57 l49 51 -60
-44 c-86 -64 -96 -67 -45 -14 71 73 22 54 -69 -28 l-35 -31 34 45 c18 25 45
57 59 73 39 43 11 32 -57 -23 -34 -27 -62 -48 -62 -45 0 3 16 38 35 78 38 77
17 59 -37 -32 -25 -41 -28 -43 -29 -21 -1 25 -1 24 -14 -5 -14 -30 -14 -29
-15 28 0 38 6 66 17 84 15 23 16 27 3 32 -17 5 81 38 119 40 14 1 32 -5 40
-13z m581 -54 c173 -30 260 -55 329 -96 l36 -21 -35 -3 c-19 -2 -95 3 -170 12
-74 8 -171 18 -214 22 -62 5 -88 12 -120 34 -54 36 -122 57 -225 70 -46 5 -87
13 -90 16 -17 18 325 -6 489 -34z m-783 -12 c-10 -36 -27 -55 -27 -30 0 6 -4
10 -10 10 -5 0 -10 -7 -10 -16 0 -8 -4 -12 -10 -9 -19 11 -10 30 28 57 20 15
37 27 38 28 1 0 -4 -18 -9 -40z m828 -121 c61 -6 116 -15 123 -19 8 -4 -32
-10 -88 -13 -57 -4 -105 -9 -108 -12 -3 -3 12 -23 33 -46 37 -37 38 -40 19
-45 -11 -3 -57 -18 -102 -33 -48 -16 -86 -23 -91 -18 -5 5 -6 -2 -4 -17 3 -14
0 -33 -7 -41 -13 -16 -6 -35 14 -35 7 0 21 -10 32 -22 l19 -21 -40 6 c-22 4
-44 14 -50 24 -19 33 -58 63 -81 63 -24 0 -32 14 -14 25 19 12 10 25 -16 25
-22 0 -24 3 -15 14 21 25 -9 30 -35 5 -13 -12 -24 -18 -24 -11 0 18 52 53 97
65 50 13 58 29 11 21 -55 -9 -117 -35 -128 -52 -7 -13 -9 -13 -10 -3 0 8 7 23
17 33 9 10 14 21 10 24 -3 3 -19 -13 -36 -37 l-31 -42 0 39 c-1 38 -1 38 -14
15 -9 -16 -16 -20 -20 -12 -13 20 10 36 92 65 71 24 252 62 312 65 14 1 75 -4
135 -10z m-1013 -109 c93 -24 214 -71 274 -106 43 -25 144 -127 164 -164 11
-21 2 -18 -215 65 -38 14 -121 41 -183 59 l-113 33 -40 58 c-21 32 -39 62 -39
66 0 15 68 10 152 -11z m1050 -67 c10 -9 18 -19 18 -22 0 -3 -30 -5 -67 -3
-93 5 -71 -11 47 -33 86 -15 217 -59 259 -86 11 -7 -18 -8 -99 -3 -63 4 -128
7 -145 6 -17 -1 -46 9 -68 24 -20 13 -52 27 -70 31 -31 6 -76 34 -80 49 -2 6
143 49 177 53 5 1 18 -6 28 -16z m-1017 -113 c103 -29 321 -107 410 -146 l40
-18 -55 -7 c-30 -4 -85 -10 -122 -14 l-66 -8 -169 75 c-92 42 -203 88 -245
104 -43 16 -78 32 -78 36 0 28 150 16 285 -22z m700 -142 l110 -49 -70 4 c-63
3 -79 9 -168 60 -106 61 -183 112 -192 127 -3 5 43 -14 102 -42 59 -28 158
-73 218 -100z"/>
<path d="M752 1309 c-54 -27 -77 -59 -107 -156 -19 -56 -34 -85 -57 -105 -35
-30 -33 -58 5 -58 28 0 64 32 78 68 6 14 14 60 19 101 14 107 62 151 165 151
28 0 44 4 40 10 -11 18 -98 11 -143 -11z"/>
<path d="M1502 1135 c0 -16 2 -22 5 -12 2 9 2 23 0 30 -3 6 -5 -1 -5 -18z"/>
<path d="M2024 1139 c-3 -5 65 -9 163 -9 115 0 163 3 153 10 -19 13 -308 12
-316 -1z"/>
<path d="M2280 1019 c-13 -8 -12 -11 5 -24 25 -19 70 -32 167 -46 56 -8 81
-16 88 -29 5 -9 22 -22 37 -28 54 -22 277 -53 261 -37 -2 3 -60 16 -127 29
-98 20 -127 30 -145 49 -18 20 -39 26 -115 36 -90 11 -145 30 -153 50 -2 7 -8
7 -18 0z"/>
<path d="M1963 953 c42 -2 112 -2 155 0 42 1 7 3 -78 3 -85 0 -120 -2 -77 -3z"/>
<path d="M2564 834 c11 -8 39 -13 65 -13 27 1 36 4 21 6 -14 3 -43 8 -65 13
-36 8 -38 7 -21 -6z"/>
<path d="M1990 789 c54 -9 227 -9 370 1 80 5 43 7 -155 7 -160 0 -243 -3 -215
-8z"/>
<path d="M2643 763 c9 -2 23 -2 30 0 6 3 -1 5 -18 5 -16 0 -22 -2 -12 -5z"/>
<path d="M3094 752 c3 -5 47 -15 98 -22 146 -19 237 -52 297 -106 34 -31 51
-41 51 -30 0 20 -30 50 -69 71 -43 22 -39 29 6 10 60 -25 88 -52 100 -97 11
-37 39 -22 29 16 -15 61 -76 90 -260 126 -173 34 -260 45 -252 32z"/>
<path d="M2755 740 c3 -6 50 -10 106 -10 64 0 98 4 94 10 -3 6 -50 10 -106 10
-64 0 -98 -4 -94 -10z"/>
<path d="M2370 730 c-15 -5 27 -8 110 -9 91 0 130 3 120 9 -18 11 -194 11
-230 0z"/>
<path d="M2900 670 c-128 -6 -124 -6 74 -8 115 -1 207 0 205 2 -9 8 -151 11
-279 6z"/>
<path d="M2208 633 c34 -2 90 -2 125 0 34 2 6 3 -63 3 -69 0 -97 -1 -62 -3z"/>
<path d="M3317 613 c18 -2 50 -2 70 0 21 2 7 4 -32 4 -38 0 -55 -2 -38 -4z"/>
<path d="M2600 530 c0 -6 128 -10 365 -10 237 0 365 4 365 10 0 6 -128 10
-365 10 -237 0 -365 -4 -365 -10z"/>
<path d="M2000 450 c-32 -4 33 -7 155 -7 116 0 197 3 180 7 -37 9 -259 9 -335
0z"/>
<path d="M3255 410 c4 -6 11 -8 16 -5 14 9 11 15 -7 15 -8 0 -12 -5 -9 -10z"/>
<path d="M3130 340 c0 -5 7 -10 15 -10 8 0 15 5 15 10 0 6 -7 10 -15 10 -8 0
-15 -4 -15 -10z"/>
<path d="M2155 330 c8 -12 402 -13 460 -1 26 6 -51 9 -213 10 -167 1 -251 -2
-247 -9z"/>
<path d="M1895 260 c-4 -7 98 -10 299 -10 197 0 306 4 306 10 0 6 -106 10
-299 10 -189 0 -302 -4 -306 -10z"/>
<path d="M3055 210 c8 -13 263 -12 271 1 3 5 -55 9 -136 9 -95 0 -139 -3 -135
-10z"/>
<path d="M3420 200 c0 -12 53 -39 146 -74 93 -35 168 -82 160 -101 -6 -17 2
-19 24 -5 34 21 -54 80 -200 135 -52 19 -96 39 -98 45 -5 13 -32 13 -32 0z"/>
<path d="M3693 139 c22 -11 41 -18 44 -15 6 6 -52 36 -69 36 -7 -1 4 -10 25
-21z"/>
<path d="M3780 122 c0 -4 26 -18 58 -32 31 -13 79 -39 105 -57 56 -38 72 -42
58 -14 -17 32 -221 127 -221 103z"/>
<path d="M2775 90 c-25 -4 22 -8 125 -9 91 -1 235 -5 320 -7 85 -3 193 -2 240
2 l85 8 -55 7 c-71 9 -663 8 -715 -1z"/>
<path d="M1738 83 c29 -2 74 -2 100 0 26 2 2 3 -53 3 -55 0 -76 -1 -47 -3z"/>
<path d="M4020 67 c13 -14 120 -65 120 -57 0 5 -17 18 -37 29 -40 20 -91 37
-83 28z"/>
</g>
</svg>